<svg width="780" height="194" viewBox="0 0 780 194" fill="none" xmlns="http://www.w3.org/2000/svg">
<path d="M270.035 139.096C261.811 139.096 254.629 137.299 248.493 133.701C242.352 130.091 237.54 125.096 234.056 118.721C230.566 112.346 228.826 104.971 228.826 96.5964C228.826 88.237 230.566 80.8672 234.056 74.4922C237.54 68.1172 242.352 63.1328 248.493 59.5339C254.629 55.9245 261.811 54.1172 270.035 54.1172C278.16 54.1172 285.311 55.9245 291.493 59.5339C297.686 63.1328 302.498 68.1172 305.931 74.4922C309.373 80.8672 311.097 88.237 311.097 96.5964C311.097 104.971 309.373 112.346 305.931 118.721C302.498 125.096 297.686 130.091 291.493 133.701C285.311 137.299 278.16 139.096 270.035 139.096ZM270.035 125.596C277.852 125.596 284.087 123.013 288.743 117.846C293.394 112.68 295.722 105.596 295.722 96.5964C295.722 87.612 293.394 80.5339 288.743 75.3672C284.087 70.2005 277.852 67.6172 270.035 67.6172C262.201 67.6172 255.936 70.2005 251.243 75.3672C246.545 80.5339 244.201 87.612 244.201 96.5964C244.201 105.596 246.545 112.68 251.243 117.846C255.936 123.013 262.201 125.596 270.035 125.596Z" fill="black"/>
<path d="M324.006 163.492V79.4714H337.381L339.027 87.8047C340.902 85.2214 343.381 82.9505 346.464 80.9922C349.558 79.0339 353.574 78.0547 358.506 78.0547C363.99 78.0547 368.881 79.388 373.173 82.0547C377.475 84.7109 380.881 88.3464 383.381 92.9714C385.891 97.5859 387.152 102.826 387.152 108.701C387.152 114.565 385.891 119.784 383.381 124.367C380.881 128.94 377.475 132.534 373.173 135.159C368.881 137.784 363.99 139.096 358.506 139.096C354.131 139.096 350.298 138.273 347.006 136.638C343.725 134.987 341.069 132.674 339.027 129.701V163.492H324.006ZM355.339 125.951C360.115 125.951 364.069 124.346 367.194 121.138C370.319 117.93 371.881 113.784 371.881 108.701C371.881 103.617 370.319 99.4297 367.194 96.138C364.069 92.8464 360.115 91.2005 355.339 91.2005C350.49 91.2005 346.516 92.8255 343.423 96.0755C340.339 99.3255 338.798 103.492 338.798 108.576C338.798 113.659 340.339 117.826 343.423 121.076C346.516 124.326 350.49 125.951 355.339 125.951Z" fill="black"/>
<path d="M428.811 139.096C422.936 139.096 417.728 137.846 413.186 135.346C408.655 132.836 405.103 129.315 402.52 124.784C399.936 120.242 398.645 115.003 398.645 109.055C398.645 103.029 399.915 97.6693 402.457 92.9714C404.999 88.2786 408.52 84.6172 413.02 81.9922C417.52 79.3672 422.816 78.0547 428.915 78.0547C434.634 78.0547 439.686 79.3151 444.061 81.8255C448.436 84.3255 451.853 87.7526 454.311 92.0964C456.78 96.4297 458.02 101.258 458.02 106.576C458.02 107.44 457.999 108.341 457.957 109.284C457.926 110.216 457.874 111.195 457.79 112.221H413.54C413.858 116.753 415.441 120.305 418.29 122.888C421.15 125.471 424.613 126.763 428.686 126.763C431.738 126.763 434.301 126.086 436.374 124.721C438.441 123.346 439.988 121.565 441.02 119.367H456.27C455.171 123.049 453.353 126.398 450.811 129.409C448.27 132.424 445.134 134.794 441.415 136.513C437.707 138.232 433.504 139.096 428.811 139.096ZM428.915 90.263C425.249 90.263 422.004 91.3047 419.186 93.388C416.363 95.4609 414.566 98.6068 413.79 102.826H442.77C442.53 98.9922 441.124 95.9453 438.54 93.6797C435.957 91.4036 432.749 90.263 428.915 90.263Z" fill="black"/>
<path d="M470.696 137.68V79.4714H483.967L485.134 89.3255C486.936 85.8828 489.54 83.1484 492.946 81.1172C496.347 79.0755 500.352 78.0547 504.967 78.0547C512.16 78.0547 517.748 80.3255 521.738 84.8672C525.738 89.4089 527.738 96.0651 527.738 104.826V137.68H512.717V106.221C512.717 101.221 511.696 97.3984 509.654 94.7422C507.623 92.0755 504.456 90.7422 500.154 90.7422C495.93 90.7422 492.467 92.2318 489.759 95.2005C487.061 98.1745 485.717 102.32 485.717 107.638V137.68H470.696Z" fill="black"/>
<path d="M574.088 139.096C568.056 139.096 562.619 137.898 557.775 135.513C552.926 133.128 549.072 129.508 546.213 124.659C543.364 119.799 541.942 113.654 541.942 106.221V55.5338H556.963V106.346C556.963 112.763 558.504 117.544 561.588 120.68C564.681 123.805 568.968 125.367 574.442 125.367C579.843 125.367 584.109 123.805 587.234 120.68C590.359 117.544 591.921 112.763 591.921 106.346V55.5338H606.942V106.221C606.942 113.654 605.452 119.799 602.484 124.659C599.51 129.508 595.536 133.128 590.567 135.513C585.609 137.898 580.114 139.096 574.088 139.096Z" fill="black"/>
<path d="M641.442 137.68V67.6172H617.504V55.5338H680.525V67.6172H656.463V137.68H641.442Z" fill="black"/>
<path d="M691.672 137.68V55.5338H709.505L735.672 107.638L761.505 55.5338H779.339V137.68H764.318V80.9922L741.422 125.951H729.589L706.693 80.9922V137.68H691.672Z" fill="black"/>
<rect width="194" height="194" rx="8" fill="#F0F0F0"/>
<circle cx="97.5" cy="96.5" r="57.5" fill="url(#paint0_linear_1_111)"/>
<circle cx="97" cy="96" r="37" fill="#F0F0F0"/>
<defs>
<linearGradient id="paint0_linear_1_111" x1="62.0213" y1="56.9433" x2="138.688" y2="134.833" gradientUnits="userSpaceOnUse">
<stop stop-color="#C9C9C9"/>
<stop offset="1" stop-color="#5D5D5D"/>
</linearGradient>
</defs>
</svg>
