<svg xmlns="http://www.w3.org/2000/svg" xmlns:xlink="http://www.w3.org/1999/xlink" width="390" zoomAndPan="magnify" viewBox="0 0 292.5 199.499995" height="266" preserveAspectRatio="xMidYMid meet" version="1.2"><defs><clipPath id="dd4c349964"><path d="M 65.105469 43.601562 L 291.789062 43.601562 L 291.789062 167.789062 L 65.105469 167.789062 Z M 65.105469 43.601562 "/></clipPath><clipPath id="6ca5c0d74a"><path d="M 40 0 L 178.726562 0 L 178.726562 182 L 40 182 Z M 40 0 "/></clipPath><clipPath id="867d95c4b0"><path d="M 24.726562 17 L 163 17 L 163 198.78125 L 24.726562 198.78125 Z M 24.726562 17 "/></clipPath><clipPath id="39416073a0"><path d="M 51.515625 56.445312 L 137.273438 56.445312 L 137.273438 88.769531 L 51.515625 88.769531 Z M 51.515625 56.445312 "/></clipPath><clipPath id="4c37bdbeff"><path d="M 48.613281 41.511719 L 84.753906 41.511719 L 84.753906 83.9375 L 48.613281 83.9375 Z M 48.613281 41.511719 "/></clipPath><clipPath id="678b21fecc"><path d="M 54.230469 47.070312 L 78.972656 47.070312 L 78.972656 71.8125 L 54.230469 71.8125 Z M 54.230469 47.070312 "/></clipPath><clipPath id="21c09f663c"><path d="M 66.601562 47.070312 C 59.769531 47.070312 54.230469 52.609375 54.230469 59.441406 C 54.230469 66.273438 59.769531 71.8125 66.601562 71.8125 C 73.433594 71.8125 78.972656 66.273438 78.972656 59.441406 C 78.972656 52.609375 73.433594 47.070312 66.601562 47.070312 Z M 66.601562 47.070312 "/></clipPath><clipPath id="818f55766c"><path d="M 64 53.648438 L 70 53.648438 L 70 60 L 64 60 Z M 64 53.648438 "/></clipPath><clipPath id="47dad66870"><path d="M 61.679688 60 L 71.894531 60 L 71.894531 65.433594 L 61.679688 65.433594 Z M 61.679688 60 "/></clipPath><clipPath id="833a924719"><path d="M 0.117188 109.40625 L 42.628906 109.40625 L 42.628906 151.921875 L 0.117188 151.921875 Z M 0.117188 109.40625 "/></clipPath><clipPath id="ff0a6abb05"><path d="M 1.613281 109.40625 L 41.132812 109.40625 C 41.960938 109.40625 42.628906 110.078125 42.628906 110.902344 L 42.628906 150.425781 C 42.628906 151.25 41.960938 151.921875 41.132812 151.921875 L 1.613281 151.921875 C 0.785156 151.921875 0.117188 151.25 0.117188 150.425781 L 0.117188 110.902344 C 0.117188 110.078125 0.785156 109.40625 1.613281 109.40625 Z M 1.613281 109.40625 "/></clipPath><clipPath id="7a3d5d7455"><path d="M 0.117188 109.40625 L 42.542969 109.40625 L 42.542969 151.835938 L 0.117188 151.835938 Z M 0.117188 109.40625 "/></clipPath><clipPath id="a9e10f3104"><path d="M 1.609375 109.40625 L 41.050781 109.40625 C 41.875 109.40625 42.542969 110.074219 42.542969 110.898438 L 42.542969 150.339844 C 42.542969 151.164062 41.875 151.835938 41.050781 151.835938 L 1.609375 151.835938 C 0.785156 151.835938 0.117188 151.164062 0.117188 150.339844 L 0.117188 110.898438 C 0.117188 110.074219 0.785156 109.40625 1.609375 109.40625 Z M 1.609375 109.40625 "/></clipPath><clipPath id="3874026927"><path d="M 11.351562 123.160156 L 31.777344 123.160156 L 31.777344 138 L 11.351562 138 Z M 11.351562 123.160156 "/></clipPath></defs><g id="e016d61348"><g clip-rule="nonzero" clip-path="url(#dd4c349964)"><path style=" stroke:none;fill-rule:nonzero;fill:#d9f2fc;fill-opacity:1;" d="M 70.023438 46.105469 C 70.023438 46.414062 69.964844 46.710938 69.84375 46.996094 C 69.726562 47.28125 69.558594 47.535156 69.339844 47.75 C 69.121094 47.96875 68.871094 48.136719 68.585938 48.257812 C 68.300781 48.375 68.003906 48.433594 67.695312 48.433594 C 67.386719 48.433594 67.089844 48.371094 66.804688 48.253906 C 66.519531 48.136719 66.265625 47.96875 66.050781 47.75 C 65.832031 47.53125 65.664062 47.277344 65.546875 46.992188 C 65.429688 46.707031 65.371094 46.410156 65.371094 46.101562 C 65.371094 45.792969 65.429688 45.496094 65.550781 45.210938 C 65.667969 44.925781 65.835938 44.675781 66.054688 44.457031 C 66.273438 44.238281 66.527344 44.074219 66.8125 43.953125 C 67.097656 43.835938 67.394531 43.777344 67.703125 43.78125 C 68.011719 43.78125 68.304688 43.839844 68.589844 43.957031 C 68.875 44.078125 69.125 44.246094 69.34375 44.464844 C 69.5625 44.679688 69.726562 44.933594 69.847656 45.21875 C 69.964844 45.5 70.023438 45.796875 70.023438 46.105469 Z M 92.308594 43.78125 C 92 43.777344 91.703125 43.835938 91.417969 43.953125 C 91.132812 44.074219 90.882812 44.238281 90.664062 44.457031 C 90.445312 44.675781 90.273438 44.925781 90.15625 45.210938 C 90.039062 45.496094 89.976562 45.792969 89.976562 46.101562 C 89.976562 46.410156 90.035156 46.707031 90.152344 46.992188 C 90.269531 47.277344 90.4375 47.53125 90.65625 47.75 C 90.875 47.96875 91.125 48.136719 91.410156 48.253906 C 91.695312 48.371094 91.992188 48.433594 92.300781 48.433594 C 92.609375 48.433594 92.90625 48.375 93.191406 48.257812 C 93.476562 48.136719 93.730469 47.96875 93.949219 47.75 C 94.167969 47.535156 94.335938 47.28125 94.453125 46.996094 C 94.570312 46.710938 94.628906 46.414062 94.628906 46.105469 C 94.628906 45.796875 94.570312 45.5 94.453125 45.21875 C 94.335938 44.933594 94.167969 44.679688 93.949219 44.464844 C 93.734375 44.246094 93.484375 44.078125 93.199219 43.957031 C 92.914062 43.839844 92.617188 43.78125 92.308594 43.78125 Z M 116.910156 43.78125 C 116.601562 43.78125 116.304688 43.839844 116.019531 43.957031 C 115.734375 44.074219 115.484375 44.242188 115.265625 44.460938 C 115.046875 44.679688 114.878906 44.929688 114.761719 45.214844 C 114.644531 45.5 114.585938 45.796875 114.585938 46.105469 C 114.585938 46.414062 114.644531 46.710938 114.761719 46.996094 C 114.878906 47.28125 115.046875 47.53125 115.265625 47.75 C 115.484375 47.96875 115.734375 48.136719 116.019531 48.253906 C 116.304688 48.375 116.601562 48.433594 116.910156 48.433594 C 117.21875 48.433594 117.515625 48.375 117.800781 48.253906 C 118.085938 48.136719 118.339844 47.96875 118.554688 47.75 C 118.773438 47.53125 118.941406 47.28125 119.058594 46.996094 C 119.179688 46.710938 119.238281 46.414062 119.238281 46.105469 C 119.238281 45.796875 119.179688 45.5 119.058594 45.214844 C 118.941406 44.929688 118.773438 44.679688 118.554688 44.460938 C 118.339844 44.242188 118.085938 44.074219 117.800781 43.957031 C 117.515625 43.839844 117.21875 43.78125 116.910156 43.78125 Z M 141.53125 43.78125 C 141.222656 43.78125 140.925781 43.839844 140.640625 43.957031 C 140.355469 44.074219 140.105469 44.242188 139.886719 44.460938 C 139.667969 44.679688 139.5 44.929688 139.382812 45.214844 C 139.261719 45.5 139.203125 45.796875 139.203125 46.105469 C 139.203125 46.414062 139.261719 46.710938 139.382812 46.996094 C 139.5 47.28125 139.667969 47.53125 139.886719 47.75 C 140.105469 47.96875 140.355469 48.136719 140.640625 48.253906 C 140.925781 48.375 141.222656 48.433594 141.53125 48.433594 C 141.839844 48.433594 142.136719 48.375 142.421875 48.253906 C 142.707031 48.136719 142.957031 47.96875 143.175781 47.75 C 143.394531 47.53125 143.5625 47.28125 143.679688 46.996094 C 143.796875 46.710938 143.855469 46.414062 143.855469 46.105469 C 143.855469 45.796875 143.796875 45.5 143.679688 45.214844 C 143.5625 44.929688 143.394531 44.679688 143.175781 44.460938 C 142.957031 44.242188 142.707031 44.074219 142.421875 43.957031 C 142.136719 43.839844 141.839844 43.78125 141.53125 43.78125 Z M 166.136719 43.78125 C 165.828125 43.78125 165.53125 43.839844 165.246094 43.957031 C 164.960938 44.074219 164.710938 44.242188 164.492188 44.460938 C 164.273438 44.679688 164.105469 44.929688 163.988281 45.214844 C 163.871094 45.5 163.8125 45.796875 163.8125 46.105469 C 163.8125 46.414062 163.871094 46.710938 163.988281 46.996094 C 164.105469 47.28125 164.273438 47.53125 164.492188 47.75 C 164.710938 47.96875 164.960938 48.136719 165.246094 48.253906 C 165.53125 48.375 165.828125 48.433594 166.136719 48.433594 C 166.445312 48.433594 166.742188 48.375 167.027344 48.253906 C 167.3125 48.136719 167.566406 47.96875 167.78125 47.75 C 168 47.53125 168.167969 47.28125 168.285156 46.996094 C 168.40625 46.710938 168.464844 46.414062 168.464844 46.105469 C 168.464844 45.796875 168.40625 45.5 168.285156 45.214844 C 168.167969 44.925781 167.996094 44.675781 167.777344 44.457031 C 167.558594 44.238281 167.304688 44.070312 167.019531 43.953125 C 166.734375 43.835938 166.433594 43.777344 166.125 43.78125 Z M 190.734375 43.78125 C 190.425781 43.777344 190.128906 43.835938 189.84375 43.953125 C 189.558594 44.074219 189.304688 44.238281 189.085938 44.457031 C 188.867188 44.675781 188.699219 44.925781 188.578125 45.210938 C 188.460938 45.496094 188.402344 45.792969 188.402344 46.101562 C 188.402344 46.410156 188.460938 46.707031 188.578125 46.992188 C 188.695312 47.277344 188.863281 47.53125 189.082031 47.75 C 189.296875 47.96875 189.550781 48.136719 189.835938 48.253906 C 190.121094 48.371094 190.417969 48.433594 190.726562 48.433594 C 191.035156 48.433594 191.332031 48.375 191.617188 48.257812 C 191.902344 48.136719 192.152344 47.96875 192.371094 47.75 C 192.589844 47.535156 192.757812 47.28125 192.875 46.996094 C 192.996094 46.710938 193.054688 46.414062 193.054688 46.105469 C 193.054688 45.796875 192.996094 45.5 192.878906 45.21875 C 192.757812 44.933594 192.59375 44.679688 192.375 44.464844 C 192.15625 44.246094 191.90625 44.078125 191.621094 43.957031 C 191.335938 43.839844 191.042969 43.78125 190.734375 43.78125 Z M 215.339844 43.78125 C 215.03125 43.78125 214.738281 43.84375 214.453125 43.964844 C 214.167969 44.082031 213.917969 44.253906 213.703125 44.472656 C 213.488281 44.691406 213.320312 44.941406 213.203125 45.226562 C 213.089844 45.511719 213.03125 45.808594 213.03125 46.117188 C 213.035156 46.425781 213.09375 46.722656 213.214844 47.007812 C 213.332031 47.289062 213.5 47.539062 213.71875 47.757812 C 213.9375 47.972656 214.191406 48.140625 214.476562 48.257812 C 214.761719 48.375 215.054688 48.433594 215.363281 48.433594 C 215.671875 48.429688 215.96875 48.371094 216.253906 48.253906 C 216.539062 48.136719 216.789062 47.96875 217.003906 47.75 C 217.222656 47.53125 217.390625 47.28125 217.507812 46.996094 C 217.625 46.710938 217.683594 46.414062 217.683594 46.105469 C 217.683594 45.796875 217.625 45.496094 217.507812 45.210938 C 217.386719 44.925781 217.21875 44.671875 216.996094 44.453125 C 216.777344 44.238281 216.523438 44.070312 216.238281 43.953125 C 215.949219 43.835938 215.652344 43.777344 215.339844 43.78125 Z M 239.941406 43.78125 C 239.632812 43.78125 239.335938 43.839844 239.050781 43.957031 C 238.765625 44.074219 238.515625 44.242188 238.296875 44.460938 C 238.078125 44.679688 237.910156 44.929688 237.792969 45.214844 C 237.675781 45.5 237.617188 45.796875 237.617188 46.105469 C 237.617188 46.414062 237.675781 46.710938 237.792969 46.996094 C 237.910156 47.28125 238.078125 47.53125 238.296875 47.75 C 238.515625 47.96875 238.765625 48.136719 239.050781 48.253906 C 239.335938 48.375 239.632812 48.433594 239.941406 48.433594 C 240.25 48.433594 240.546875 48.375 240.832031 48.253906 C 241.117188 48.136719 241.367188 47.96875 241.585938 47.75 C 241.804688 47.53125 241.972656 47.28125 242.089844 46.996094 C 242.210938 46.710938 242.269531 46.414062 242.269531 46.105469 C 242.269531 45.796875 242.210938 45.5 242.089844 45.214844 C 241.972656 44.929688 241.804688 44.679688 241.585938 44.460938 C 241.367188 44.242188 241.117188 44.074219 240.832031 43.957031 C 240.546875 43.839844 240.25 43.78125 239.941406 43.78125 Z M 264.550781 43.78125 C 264.242188 43.78125 263.945312 43.839844 263.660156 43.957031 C 263.375 44.074219 263.121094 44.242188 262.90625 44.460938 C 262.6875 44.679688 262.519531 44.929688 262.402344 45.214844 C 262.28125 45.5 262.222656 45.796875 262.222656 46.105469 C 262.222656 46.414062 262.28125 46.710938 262.402344 46.996094 C 262.519531 47.28125 262.6875 47.53125 262.90625 47.75 C 263.121094 47.96875 263.375 48.136719 263.660156 48.253906 C 263.945312 48.375 264.242188 48.433594 264.550781 48.433594 C 264.859375 48.433594 265.15625 48.375 265.441406 48.253906 C 265.726562 48.136719 265.976562 47.96875 266.195312 47.75 C 266.414062 47.53125 266.582031 47.28125 266.699219 46.996094 C 266.816406 46.710938 266.875 46.414062 266.875 46.105469 C 266.875 45.796875 266.816406 45.5 266.699219 45.214844 C 266.582031 44.929688 266.414062 44.679688 266.195312 44.460938 C 265.976562 44.242188 265.726562 44.074219 265.441406 43.957031 C 265.15625 43.839844 264.859375 43.78125 264.550781 43.78125 Z M 289.15625 48.425781 C 289.464844 48.425781 289.761719 48.367188 290.046875 48.25 C 290.332031 48.132812 290.585938 47.960938 290.800781 47.746094 C 291.019531 47.527344 291.1875 47.273438 291.308594 46.988281 C 291.425781 46.703125 291.484375 46.40625 291.484375 46.097656 C 291.484375 45.789062 291.421875 45.492188 291.304688 45.207031 C 291.1875 44.921875 291.019531 44.671875 290.800781 44.453125 C 290.582031 44.234375 290.328125 44.066406 290.042969 43.949219 C 289.757812 43.832031 289.460938 43.773438 289.152344 43.773438 C 288.84375 43.773438 288.546875 43.835938 288.261719 43.953125 C 287.976562 44.070312 287.726562 44.238281 287.507812 44.457031 C 287.289062 44.675781 287.125 44.929688 287.003906 45.214844 C 286.886719 45.5 286.828125 45.796875 286.832031 46.105469 C 286.832031 46.414062 286.890625 46.710938 287.007812 46.996094 C 287.128906 47.277344 287.296875 47.53125 287.515625 47.746094 C 287.730469 47.964844 287.984375 48.132812 288.269531 48.25 C 288.554688 48.367188 288.847656 48.425781 289.15625 48.425781 Z M 67.703125 67.578125 C 67.394531 67.578125 67.097656 67.636719 66.8125 67.753906 C 66.527344 67.871094 66.273438 68.039062 66.054688 68.257812 C 65.835938 68.472656 65.667969 68.726562 65.550781 69.011719 C 65.429688 69.296875 65.371094 69.589844 65.371094 69.902344 C 65.371094 70.210938 65.429688 70.507812 65.546875 70.792969 C 65.664062 71.078125 65.832031 71.328125 66.050781 71.546875 C 66.265625 71.765625 66.519531 71.933594 66.804688 72.050781 C 67.089844 72.171875 67.386719 72.230469 67.695312 72.230469 C 68.003906 72.230469 68.300781 72.171875 68.585938 72.054688 C 68.871094 71.9375 69.121094 71.769531 69.339844 71.550781 C 69.558594 71.332031 69.726562 71.082031 69.84375 70.796875 C 69.964844 70.511719 70.023438 70.214844 70.023438 69.90625 C 70.023438 69.597656 69.964844 69.300781 69.847656 69.015625 C 69.726562 68.730469 69.5625 68.480469 69.34375 68.261719 C 69.125 68.042969 68.875 67.875 68.589844 67.757812 C 68.304688 67.636719 68.011719 67.578125 67.703125 67.578125 Z M 92.308594 67.578125 C 92 67.578125 91.703125 67.636719 91.417969 67.753906 C 91.132812 67.871094 90.882812 68.039062 90.664062 68.257812 C 90.445312 68.472656 90.273438 68.726562 90.15625 69.011719 C 90.039062 69.296875 89.976562 69.589844 89.976562 69.902344 C 89.976562 70.210938 90.035156 70.507812 90.152344 70.792969 C 90.269531 71.078125 90.4375 71.328125 90.65625 71.546875 C 90.875 71.765625 91.125 71.933594 91.410156 72.050781 C 91.695312 72.171875 91.992188 72.230469 92.300781 72.230469 C 92.609375 72.230469 92.90625 72.171875 93.191406 72.054688 C 93.476562 71.9375 93.730469 71.769531 93.949219 71.550781 C 94.167969 71.332031 94.335938 71.082031 94.453125 70.796875 C 94.570312 70.511719 94.628906 70.214844 94.628906 69.90625 C 94.628906 69.597656 94.570312 69.300781 94.453125 69.015625 C 94.335938 68.730469 94.167969 68.480469 93.949219 68.261719 C 93.734375 68.042969 93.484375 67.875 93.199219 67.757812 C 92.914062 67.636719 92.617188 67.578125 92.308594 67.578125 Z M 116.910156 67.578125 C 116.601562 67.578125 116.304688 67.636719 116.019531 67.753906 C 115.734375 67.875 115.484375 68.042969 115.265625 68.257812 C 115.046875 68.476562 114.878906 68.730469 114.761719 69.015625 C 114.644531 69.300781 114.585938 69.597656 114.585938 69.90625 C 114.585938 70.210938 114.644531 70.507812 114.761719 70.792969 C 114.878906 71.078125 115.046875 71.332031 115.265625 71.550781 C 115.484375 71.765625 115.734375 71.9375 116.019531 72.054688 C 116.304688 72.171875 116.601562 72.230469 116.910156 72.230469 C 117.21875 72.230469 117.515625 72.171875 117.800781 72.054688 C 118.085938 71.9375 118.339844 71.765625 118.554688 71.550781 C 118.773438 71.332031 118.941406 71.078125 119.058594 70.792969 C 119.179688 70.507812 119.238281 70.210938 119.238281 69.90625 C 119.238281 69.597656 119.179688 69.300781 119.058594 69.015625 C 118.941406 68.730469 118.773438 68.476562 118.554688 68.257812 C 118.339844 68.042969 118.085938 67.875 117.800781 67.753906 C 117.515625 67.636719 117.21875 67.578125 116.910156 67.578125 Z M 141.53125 67.578125 C 141.222656 67.578125 140.925781 67.636719 140.640625 67.753906 C 140.355469 67.875 140.105469 68.042969 139.886719 68.257812 C 139.667969 68.476562 139.5 68.730469 139.382812 69.015625 C 139.261719 69.300781 139.203125 69.597656 139.203125 69.90625 C 139.203125 70.210938 139.261719 70.507812 139.382812 70.792969 C 139.5 71.078125 139.667969 71.332031 139.886719 71.550781 C 140.105469 71.765625 140.355469 71.9375 140.640625 72.054688 C 140.925781 72.171875 141.222656 72.230469 141.53125 72.230469 C 141.839844 72.230469 142.136719 72.171875 142.421875 72.054688 C 142.707031 71.9375 142.957031 71.765625 143.175781 71.550781 C 143.394531 71.332031 143.5625 71.078125 143.679688 70.792969 C 143.796875 70.507812 143.855469 70.210938 143.855469 69.90625 C 143.855469 69.597656 143.796875 69.300781 143.679688 69.015625 C 143.5625 68.730469 143.394531 68.476562 143.175781 68.257812 C 142.957031 68.042969 142.707031 67.875 142.421875 67.753906 C 142.136719 67.636719 141.839844 67.578125 141.53125 67.578125 Z M 166.136719 67.578125 C 165.828125 67.578125 165.53125 67.636719 165.246094 67.753906 C 164.960938 67.875 164.710938 68.042969 164.492188 68.257812 C 164.273438 68.476562 164.105469 68.730469 163.988281 69.015625 C 163.871094 69.300781 163.8125 69.597656 163.8125 69.90625 C 163.8125 70.210938 163.871094 70.507812 163.988281 70.792969 C 164.105469 71.078125 164.273438 71.332031 164.492188 71.550781 C 164.710938 71.765625 164.960938 71.9375 165.246094 72.054688 C 165.53125 72.171875 165.828125 72.230469 166.136719 72.230469 C 166.445312 72.230469 166.742188 72.171875 167.027344 72.054688 C 167.3125 71.9375 167.566406 71.765625 167.78125 71.550781 C 168 71.332031 168.167969 71.078125 168.285156 70.792969 C 168.40625 70.507812 168.464844 70.210938 168.464844 69.90625 C 168.464844 69.59375 168.40625 69.296875 168.285156 69.011719 C 168.167969 68.726562 167.996094 68.472656 167.777344 68.253906 C 167.558594 68.035156 167.304688 67.867188 167.019531 67.75 C 166.734375 67.632812 166.433594 67.578125 166.125 67.578125 Z M 190.746094 67.578125 C 190.4375 67.578125 190.140625 67.636719 189.855469 67.753906 C 189.570312 67.871094 189.316406 68.039062 189.097656 68.257812 C 188.878906 68.472656 188.710938 68.726562 188.59375 69.011719 C 188.472656 69.296875 188.414062 69.589844 188.414062 69.902344 C 188.414062 70.210938 188.472656 70.507812 188.589844 70.792969 C 188.707031 71.078125 188.875 71.328125 189.09375 71.546875 C 189.308594 71.765625 189.5625 71.933594 189.847656 72.050781 C 190.132812 72.171875 190.429688 72.230469 190.738281 72.230469 C 191.046875 72.230469 191.34375 72.171875 191.628906 72.054688 C 191.914062 71.9375 192.164062 71.769531 192.382812 71.550781 C 192.601562 71.332031 192.769531 71.082031 192.886719 70.796875 C 193.007812 70.511719 193.066406 70.214844 193.066406 69.90625 C 193.066406 69.59375 193.007812 69.296875 192.886719 69.011719 C 192.769531 68.726562 192.601562 68.476562 192.382812 68.257812 C 192.164062 68.039062 191.910156 67.871094 191.625 67.753906 C 191.339844 67.636719 191.042969 67.578125 190.734375 67.578125 Z M 215.351562 67.578125 C 215.042969 67.578125 214.746094 67.636719 214.460938 67.753906 C 214.175781 67.871094 213.925781 68.039062 213.707031 68.257812 C 213.488281 68.472656 213.316406 68.726562 213.199219 69.011719 C 213.082031 69.296875 213.019531 69.589844 213.019531 69.902344 C 213.019531 70.210938 213.078125 70.507812 213.195312 70.792969 C 213.3125 71.078125 213.480469 71.328125 213.699219 71.546875 C 213.917969 71.765625 214.167969 71.933594 214.453125 72.050781 C 214.738281 72.171875 215.035156 72.230469 215.34375 72.230469 C 215.652344 72.230469 215.949219 72.171875 216.234375 72.054688 C 216.519531 71.9375 216.773438 71.769531 216.992188 71.550781 C 217.210938 71.332031 217.378906 71.082031 217.496094 70.796875 C 217.613281 70.511719 217.671875 70.214844 217.671875 69.90625 C 217.671875 69.59375 217.613281 69.296875 217.496094 69.011719 C 217.378906 68.726562 217.207031 68.476562 216.988281 68.257812 C 216.769531 68.039062 216.519531 67.871094 216.234375 67.753906 C 215.945312 67.636719 215.648438 67.578125 215.339844 67.578125 Z M 239.953125 67.578125 C 239.644531 67.578125 239.347656 67.636719 239.0625 67.753906 C 238.777344 67.875 238.527344 68.042969 238.308594 68.257812 C 238.089844 68.476562 237.921875 68.730469 237.804688 69.015625 C 237.6875 69.300781 237.628906 69.597656 237.628906 69.90625 C 237.628906 70.210938 237.6875 70.507812 237.804688 70.792969 C 237.921875 71.078125 238.089844 71.332031 238.308594 71.550781 C 238.527344 71.765625 238.777344 71.9375 239.0625 72.054688 C 239.347656 72.171875 239.644531 72.230469 239.953125 72.230469 C 240.261719 72.230469 240.558594 72.171875 240.84375 72.054688 C 241.128906 71.9375 241.382812 71.765625 241.597656 71.550781 C 241.816406 71.332031 241.984375 71.078125 242.101562 70.792969 C 242.222656 70.507812 242.28125 70.210938 242.28125 69.90625 C 242.28125 69.59375 242.222656 69.296875 242.101562 69.011719 C 241.984375 68.726562 241.8125 68.472656 241.59375 68.253906 C 241.375 68.035156 241.121094 67.867188 240.835938 67.75 C 240.550781 67.632812 240.25 67.578125 239.941406 67.578125 Z M 264.5625 67.578125 C 264.253906 67.578125 263.957031 67.636719 263.671875 67.753906 C 263.386719 67.875 263.132812 68.042969 262.917969 68.257812 C 262.699219 68.476562 262.53125 68.730469 262.414062 69.015625 C 262.292969 69.300781 262.234375 69.597656 262.234375 69.90625 C 262.234375 70.210938 262.292969 70.507812 262.414062 70.792969 C 262.53125 71.078125 262.699219 71.332031 262.917969 71.550781 C 263.132812 71.765625 263.386719 71.9375 263.671875 72.054688 C 263.957031 72.171875 264.253906 72.230469 264.5625 72.230469 C 264.871094 72.230469 265.167969 72.171875 265.453125 72.054688 C 265.738281 71.9375 265.988281 71.765625 266.207031 71.550781 C 266.425781 71.332031 266.59375 71.078125 266.710938 70.792969 C 266.828125 70.507812 266.886719 70.210938 266.886719 69.90625 C 266.886719 69.59375 266.828125 69.296875 266.710938 69.011719 C 266.589844 68.726562 266.421875 68.472656 266.203125 68.253906 C 265.984375 68.035156 265.730469 67.867188 265.445312 67.75 C 265.15625 67.632812 264.859375 67.578125 264.550781 67.578125 Z M 289.167969 67.578125 C 288.859375 67.574219 288.5625 67.628906 288.273438 67.742188 C 287.988281 67.855469 287.734375 68.019531 287.511719 68.238281 C 287.289062 68.453125 287.117188 68.703125 286.996094 68.988281 C 286.875 69.269531 286.8125 69.566406 286.808594 69.875 C 286.804688 70.183594 286.859375 70.484375 286.972656 70.769531 C 287.089844 71.058594 287.253906 71.3125 287.472656 71.53125 C 287.6875 71.753906 287.9375 71.925781 288.222656 72.042969 C 288.507812 72.164062 288.804688 72.226562 289.113281 72.230469 C 289.421875 72.234375 289.71875 72.175781 290.007812 72.058594 C 290.292969 71.945312 290.546875 71.777344 290.765625 71.558594 C 290.988281 71.34375 291.15625 71.09375 291.277344 70.808594 C 291.398438 70.523438 291.457031 70.226562 291.460938 69.917969 C 291.460938 69.609375 291.402344 69.3125 291.289062 69.027344 C 291.171875 68.742188 291.007812 68.492188 290.789062 68.273438 C 290.574219 68.054688 290.324219 67.882812 290.042969 67.761719 C 289.761719 67.644531 289.464844 67.582031 289.15625 67.578125 Z M 67.703125 91.40625 C 67.394531 91.40625 67.097656 91.464844 66.8125 91.582031 C 66.527344 91.699219 66.277344 91.863281 66.058594 92.082031 C 65.839844 92.296875 65.671875 92.546875 65.550781 92.832031 C 65.433594 93.117188 65.371094 93.414062 65.371094 93.71875 C 65.367188 94.027344 65.425781 94.324219 65.542969 94.609375 C 65.660156 94.894531 65.824219 95.148438 66.042969 95.367188 C 66.257812 95.585938 66.507812 95.753906 66.792969 95.875 C 67.074219 95.996094 67.371094 96.054688 67.679688 96.058594 C 67.988281 96.0625 68.285156 96.003906 68.570312 95.890625 C 68.855469 95.773438 69.105469 95.609375 69.328125 95.390625 C 69.546875 95.175781 69.714844 94.925781 69.835938 94.644531 C 69.957031 94.359375 70.019531 94.0625 70.023438 93.757812 C 70.027344 93.445312 69.96875 93.148438 69.851562 92.859375 C 69.738281 92.574219 69.570312 92.320312 69.351562 92.097656 C 69.132812 91.878906 68.882812 91.707031 68.597656 91.585938 C 68.308594 91.46875 68.011719 91.40625 67.703125 91.40625 Z M 92.308594 91.40625 C 92 91.40625 91.703125 91.464844 91.417969 91.582031 C 91.132812 91.699219 90.878906 91.867188 90.660156 92.085938 C 90.441406 92.300781 90.273438 92.554688 90.15625 92.839844 C 90.039062 93.125 89.976562 93.421875 89.976562 93.730469 C 89.976562 94.039062 90.035156 94.335938 90.152344 94.621094 C 90.273438 94.90625 90.441406 95.160156 90.660156 95.378906 C 90.878906 95.597656 91.128906 95.765625 91.414062 95.882812 C 91.699219 96 91.996094 96.058594 92.304688 96.058594 C 92.613281 96.058594 92.910156 96 93.195312 95.878906 C 93.480469 95.761719 93.734375 95.59375 93.953125 95.375 C 94.167969 95.15625 94.335938 94.902344 94.453125 94.617188 C 94.574219 94.332031 94.628906 94.035156 94.628906 93.726562 C 94.628906 93.417969 94.570312 93.125 94.453125 92.839844 C 94.332031 92.554688 94.167969 92.304688 93.949219 92.085938 C 93.730469 91.871094 93.480469 91.703125 93.195312 91.585938 C 92.914062 91.464844 92.617188 91.40625 92.308594 91.40625 Z M 116.910156 91.40625 C 116.601562 91.40625 116.308594 91.464844 116.023438 91.582031 C 115.738281 91.699219 115.488281 91.867188 115.269531 92.085938 C 115.050781 92.300781 114.882812 92.550781 114.765625 92.835938 C 114.644531 93.121094 114.585938 93.417969 114.585938 93.722656 C 114.585938 94.03125 114.640625 94.328125 114.757812 94.613281 C 114.875 94.898438 115.042969 95.148438 115.257812 95.367188 C 115.472656 95.585938 115.726562 95.757812 116.007812 95.875 C 116.292969 95.996094 116.585938 96.054688 116.894531 96.058594 C 117.203125 96.0625 117.5 96.003906 117.785156 95.886719 C 118.070312 95.773438 118.324219 95.605469 118.542969 95.390625 C 118.761719 95.175781 118.929688 94.925781 119.050781 94.644531 C 119.171875 94.359375 119.234375 94.0625 119.238281 93.757812 C 119.242188 93.445312 119.183594 93.148438 119.066406 92.859375 C 118.949219 92.570312 118.78125 92.316406 118.566406 92.097656 C 118.347656 91.875 118.09375 91.703125 117.808594 91.585938 C 117.519531 91.464844 117.222656 91.40625 116.910156 91.40625 Z M 141.519531 91.40625 C 141.210938 91.40625 140.914062 91.464844 140.628906 91.582031 C 140.34375 91.703125 140.089844 91.871094 139.871094 92.089844 C 139.65625 92.304688 139.488281 92.558594 139.367188 92.84375 C 139.25 93.128906 139.191406 93.425781 139.191406 93.734375 C 139.191406 94.042969 139.25 94.339844 139.371094 94.625 C 139.488281 94.910156 139.65625 95.160156 139.875 95.378906 C 140.09375 95.597656 140.347656 95.765625 140.632812 95.882812 C 140.917969 96 141.214844 96.058594 141.523438 96.058594 C 141.832031 96.058594 142.128906 96 142.414062 95.878906 C 142.699219 95.761719 142.949219 95.59375 143.167969 95.375 C 143.386719 95.15625 143.550781 94.902344 143.667969 94.617188 C 143.789062 94.332031 143.84375 94.035156 143.84375 93.726562 C 143.84375 93.417969 143.785156 93.125 143.667969 92.839844 C 143.550781 92.558594 143.382812 92.308594 143.164062 92.089844 C 142.949219 91.871094 142.699219 91.703125 142.414062 91.585938 C 142.132812 91.46875 141.835938 91.40625 141.53125 91.40625 Z M 166.125 91.40625 C 165.816406 91.40625 165.519531 91.464844 165.234375 91.582031 C 164.949219 91.703125 164.699219 91.871094 164.480469 92.089844 C 164.261719 92.304688 164.09375 92.558594 163.976562 92.84375 C 163.859375 93.128906 163.800781 93.425781 163.800781 93.734375 C 163.800781 94.042969 163.859375 94.339844 163.976562 94.625 C 164.097656 94.910156 164.265625 95.160156 164.484375 95.378906 C 164.703125 95.597656 164.953125 95.765625 165.238281 95.882812 C 165.523438 96 165.820312 96.058594 166.128906 96.058594 C 166.4375 96.058594 166.734375 96 167.019531 95.878906 C 167.304688 95.761719 167.558594 95.59375 167.773438 95.375 C 167.992188 95.15625 168.160156 94.902344 168.277344 94.617188 C 168.394531 94.332031 168.453125 94.035156 168.453125 93.726562 C 168.453125 93.417969 168.390625 93.121094 168.273438 92.839844 C 168.15625 92.554688 167.988281 92.304688 167.769531 92.085938 C 167.550781 91.867188 167.300781 91.699219 167.015625 91.582031 C 166.730469 91.464844 166.433594 91.40625 166.125 91.40625 Z M 190.734375 91.40625 C 190.425781 91.40625 190.128906 91.464844 189.84375 91.582031 C 189.554688 91.699219 189.304688 91.867188 189.085938 92.085938 C 188.867188 92.300781 188.699219 92.554688 188.578125 92.839844 C 188.460938 93.125 188.402344 93.421875 188.402344 93.730469 C 188.402344 94.039062 188.460938 94.335938 188.578125 94.621094 C 188.695312 94.90625 188.863281 95.160156 189.082031 95.378906 C 189.300781 95.597656 189.554688 95.765625 189.839844 95.882812 C 190.125 96 190.421875 96.058594 190.730469 96.058594 C 191.039062 96.058594 191.335938 96 191.621094 95.878906 C 191.90625 95.761719 192.15625 95.59375 192.375 95.375 C 192.59375 95.15625 192.761719 94.902344 192.878906 94.617188 C 192.996094 94.332031 193.054688 94.035156 193.054688 93.726562 C 193.054688 93.417969 192.992188 93.125 192.875 92.839844 C 192.757812 92.554688 192.589844 92.304688 192.371094 92.085938 C 192.15625 91.871094 191.90625 91.703125 191.621094 91.585938 C 191.335938 91.464844 191.039062 91.40625 190.734375 91.40625 Z M 215.339844 91.40625 C 215.035156 91.410156 214.738281 91.46875 214.457031 91.589844 C 214.171875 91.707031 213.921875 91.875 213.707031 92.09375 C 213.488281 92.3125 213.324219 92.566406 213.207031 92.847656 C 213.089844 93.132812 213.03125 93.429688 213.03125 93.738281 C 213.03125 94.042969 213.09375 94.339844 213.210938 94.625 C 213.328125 94.90625 213.496094 95.15625 213.710938 95.375 C 213.929688 95.59375 214.179688 95.761719 214.460938 95.878906 C 214.746094 95.996094 215.042969 96.058594 215.347656 96.058594 C 215.65625 96.058594 215.953125 96.003906 216.238281 95.886719 C 216.519531 95.769531 216.773438 95.605469 216.992188 95.390625 C 217.210938 95.171875 217.378906 94.925781 217.5 94.640625 C 217.621094 94.359375 217.683594 94.0625 217.683594 93.757812 C 217.6875 93.445312 217.632812 93.144531 217.511719 92.855469 C 217.394531 92.566406 217.226562 92.308594 217.003906 92.089844 C 216.785156 91.867188 216.53125 91.699219 216.242188 91.582031 C 215.953125 91.460938 215.652344 91.402344 215.339844 91.40625 Z M 239.941406 91.40625 C 239.632812 91.40625 239.335938 91.464844 239.050781 91.582031 C 238.765625 91.703125 238.515625 91.871094 238.296875 92.089844 C 238.078125 92.304688 237.910156 92.558594 237.792969 92.84375 C 237.675781 93.128906 237.617188 93.425781 237.617188 93.734375 C 237.617188 94.042969 237.675781 94.339844 237.792969 94.625 C 237.914062 94.910156 238.082031 95.160156 238.300781 95.378906 C 238.519531 95.597656 238.769531 95.765625 239.054688 95.882812 C 239.339844 96 239.636719 96.058594 239.945312 96.058594 C 240.253906 96.058594 240.550781 96 240.835938 95.878906 C 241.121094 95.761719 241.371094 95.59375 241.589844 95.375 C 241.808594 95.15625 241.976562 94.902344 242.09375 94.617188 C 242.210938 94.332031 242.269531 94.035156 242.269531 93.726562 C 242.269531 93.417969 242.207031 93.121094 242.089844 92.839844 C 241.972656 92.554688 241.804688 92.304688 241.585938 92.085938 C 241.367188 91.867188 241.117188 91.699219 240.832031 91.582031 C 240.546875 91.464844 240.25 91.40625 239.941406 91.40625 Z M 264.550781 91.40625 C 264.242188 91.40625 263.945312 91.464844 263.660156 91.582031 C 263.375 91.703125 263.121094 91.871094 262.902344 92.089844 C 262.6875 92.304688 262.519531 92.558594 262.398438 92.84375 C 262.28125 93.128906 262.222656 93.425781 262.222656 93.734375 C 262.222656 94.042969 262.28125 94.339844 262.402344 94.625 C 262.519531 94.910156 262.6875 95.160156 262.90625 95.378906 C 263.125 95.597656 263.378906 95.765625 263.664062 95.882812 C 263.949219 96 264.246094 96.058594 264.554688 96.058594 C 264.863281 96.058594 265.160156 96 265.445312 95.878906 C 265.730469 95.761719 265.980469 95.59375 266.199219 95.375 C 266.414062 95.15625 266.582031 94.902344 266.699219 94.617188 C 266.820312 94.332031 266.875 94.035156 266.875 93.726562 C 266.875 93.417969 266.816406 93.121094 266.695312 92.839844 C 266.578125 92.554688 266.410156 92.304688 266.191406 92.085938 C 265.972656 91.867188 265.722656 91.699219 265.4375 91.582031 C 265.152344 91.464844 264.859375 91.40625 264.550781 91.40625 Z M 289.15625 91.40625 C 288.847656 91.402344 288.550781 91.460938 288.265625 91.574219 C 287.980469 91.6875 287.726562 91.855469 287.503906 92.070312 C 287.285156 92.285156 287.113281 92.535156 286.992188 92.820312 C 286.871094 93.105469 286.808594 93.398438 286.808594 93.707031 C 286.804688 94.015625 286.859375 94.3125 286.976562 94.601562 C 287.089844 94.886719 287.253906 95.140625 287.472656 95.359375 C 287.6875 95.582031 287.9375 95.75 288.222656 95.871094 C 288.503906 95.992188 288.800781 96.054688 289.109375 96.058594 C 289.417969 96.0625 289.714844 96.003906 290 95.890625 C 290.289062 95.777344 290.539062 95.609375 290.761719 95.394531 C 290.980469 95.179688 291.152344 94.929688 291.273438 94.644531 C 291.394531 94.359375 291.457031 94.066406 291.460938 93.757812 C 291.460938 93.449219 291.40625 93.148438 291.292969 92.863281 C 291.175781 92.578125 291.011719 92.324219 290.796875 92.105469 C 290.578125 91.882812 290.328125 91.714844 290.046875 91.59375 C 289.761719 91.472656 289.464844 91.410156 289.15625 91.40625 Z M 67.703125 115.203125 C 67.394531 115.203125 67.097656 115.261719 66.8125 115.378906 C 66.527344 115.496094 66.277344 115.664062 66.058594 115.878906 C 65.839844 116.097656 65.671875 116.347656 65.550781 116.632812 C 65.433594 116.914062 65.371094 117.210938 65.371094 117.519531 C 65.367188 117.828125 65.425781 118.125 65.542969 118.410156 C 65.660156 118.695312 65.824219 118.945312 66.042969 119.164062 C 66.257812 119.382812 66.507812 119.554688 66.792969 119.671875 C 67.074219 119.792969 67.371094 119.855469 67.679688 119.855469 C 67.988281 119.859375 68.285156 119.800781 68.570312 119.6875 C 68.855469 119.570312 69.105469 119.40625 69.328125 119.191406 C 69.546875 118.972656 69.714844 118.726562 69.835938 118.441406 C 69.957031 118.15625 70.019531 117.863281 70.023438 117.554688 C 70.023438 117.246094 69.964844 116.949219 69.847656 116.660156 C 69.734375 116.375 69.566406 116.125 69.347656 115.902344 C 69.128906 115.683594 68.878906 115.515625 68.59375 115.394531 C 68.308594 115.277344 68.011719 115.21875 67.703125 115.214844 Z M 92.308594 115.203125 C 92 115.203125 91.703125 115.261719 91.417969 115.378906 C 91.132812 115.496094 90.882812 115.664062 90.664062 115.882812 C 90.445312 116.101562 90.273438 116.351562 90.15625 116.636719 C 90.039062 116.921875 89.976562 117.21875 89.976562 117.527344 C 89.976562 117.835938 90.035156 118.132812 90.152344 118.417969 C 90.269531 118.703125 90.4375 118.953125 90.65625 119.171875 C 90.875 119.390625 91.125 119.558594 91.410156 119.679688 C 91.695312 119.796875 91.992188 119.855469 92.300781 119.855469 C 92.609375 119.855469 92.90625 119.796875 93.191406 119.679688 C 93.476562 119.5625 93.730469 119.394531 93.949219 119.175781 C 94.167969 118.957031 94.335938 118.707031 94.453125 118.421875 C 94.570312 118.136719 94.628906 117.839844 94.628906 117.53125 C 94.628906 117.222656 94.570312 116.929688 94.449219 116.644531 C 94.332031 116.363281 94.164062 116.113281 93.945312 115.894531 C 93.730469 115.679688 93.480469 115.511719 93.195312 115.394531 C 92.910156 115.277344 92.617188 115.21875 92.308594 115.214844 Z M 116.910156 115.203125 C 116.601562 115.203125 116.308594 115.261719 116.023438 115.378906 C 115.738281 115.5 115.488281 115.664062 115.269531 115.882812 C 115.050781 116.101562 114.882812 116.351562 114.765625 116.636719 C 114.644531 116.917969 114.585938 117.214844 114.585938 117.523438 C 114.585938 117.832031 114.640625 118.125 114.757812 118.410156 C 114.875 118.695312 115.042969 118.949219 115.257812 119.167969 C 115.472656 119.386719 115.726562 119.554688 116.007812 119.675781 C 116.292969 119.792969 116.585938 119.855469 116.894531 119.855469 C 117.203125 119.859375 117.5 119.800781 117.785156 119.6875 C 118.070312 119.570312 118.324219 119.40625 118.542969 119.191406 C 118.761719 118.972656 118.929688 118.722656 119.050781 118.441406 C 119.171875 118.15625 119.234375 117.863281 119.238281 117.554688 C 119.238281 117.246094 119.179688 116.945312 119.0625 116.660156 C 118.945312 116.375 118.777344 116.121094 118.558594 115.902344 C 118.34375 115.683594 118.089844 115.511719 117.804688 115.394531 C 117.519531 115.277344 117.21875 115.214844 116.910156 115.214844 Z M 141.519531 115.203125 C 141.210938 115.203125 140.914062 115.261719 140.628906 115.382812 C 140.34375 115.5 140.089844 115.667969 139.875 115.886719 C 139.65625 116.105469 139.488281 116.355469 139.371094 116.640625 C 139.25 116.925781 139.191406 117.222656 139.191406 117.53125 C 139.191406 117.839844 139.25 118.136719 139.371094 118.421875 C 139.488281 118.707031 139.65625 118.957031 139.875 119.175781 C 140.089844 119.394531 140.34375 119.5625 140.628906 119.679688 C 140.914062 119.796875 141.210938 119.855469 141.519531 119.855469 C 141.828125 119.855469 142.125 119.796875 142.410156 119.679688 C 142.695312 119.5625 142.945312 119.394531 143.164062 119.175781 C 143.382812 118.957031 143.550781 118.707031 143.667969 118.421875 C 143.785156 118.136719 143.84375 117.839844 143.84375 117.53125 C 143.84375 117.222656 143.785156 116.929688 143.664062 116.648438 C 143.546875 116.363281 143.378906 116.113281 143.164062 115.898438 C 142.945312 115.679688 142.695312 115.511719 142.414062 115.394531 C 142.132812 115.277344 141.835938 115.21875 141.53125 115.214844 Z M 166.125 115.203125 C 165.816406 115.203125 165.519531 115.261719 165.234375 115.382812 C 164.949219 115.5 164.699219 115.667969 164.480469 115.886719 C 164.261719 116.105469 164.09375 116.355469 163.976562 116.640625 C 163.859375 116.925781 163.800781 117.222656 163.800781 117.53125 C 163.800781 117.839844 163.859375 118.136719 163.976562 118.421875 C 164.09375 118.707031 164.261719 118.957031 164.480469 119.175781 C 164.699219 119.394531 164.949219 119.5625 165.234375 119.679688 C 165.519531 119.796875 165.816406 119.855469 166.125 119.855469 C 166.433594 119.855469 166.730469 119.796875 167.015625 119.679688 C 167.300781 119.5625 167.554688 119.394531 167.769531 119.175781 C 167.988281 118.957031 168.15625 118.707031 168.273438 118.421875 C 168.394531 118.136719 168.453125 117.839844 168.453125 117.53125 C 168.449219 117.222656 168.390625 116.925781 168.273438 116.644531 C 168.152344 116.359375 167.984375 116.109375 167.765625 115.894531 C 167.546875 115.675781 167.296875 115.507812 167.011719 115.390625 C 166.730469 115.273438 166.433594 115.214844 166.125 115.214844 Z M 190.734375 115.203125 C 190.425781 115.203125 190.128906 115.261719 189.84375 115.378906 C 189.558594 115.496094 189.304688 115.664062 189.085938 115.882812 C 188.867188 116.101562 188.699219 116.351562 188.578125 116.636719 C 188.460938 116.921875 188.402344 117.21875 188.402344 117.527344 C 188.402344 117.835938 188.460938 118.132812 188.578125 118.417969 C 188.695312 118.703125 188.863281 118.953125 189.082031 119.171875 C 189.296875 119.390625 189.550781 119.558594 189.835938 119.679688 C 190.121094 119.796875 190.417969 119.855469 190.726562 119.855469 C 191.035156 119.855469 191.332031 119.796875 191.617188 119.679688 C 191.902344 119.5625 192.152344 119.394531 192.371094 119.175781 C 192.589844 118.957031 192.757812 118.707031 192.875 118.421875 C 192.996094 118.136719 193.054688 117.839844 193.054688 117.53125 C 193.050781 117.222656 192.992188 116.929688 192.875 116.644531 C 192.753906 116.363281 192.585938 116.113281 192.371094 115.894531 C 192.152344 115.679688 191.902344 115.511719 191.617188 115.394531 C 191.335938 115.277344 191.039062 115.21875 190.734375 115.214844 Z M 215.339844 115.203125 C 215.035156 115.207031 214.738281 115.269531 214.457031 115.386719 C 214.171875 115.507812 213.921875 115.675781 213.707031 115.894531 C 213.488281 116.113281 213.324219 116.363281 213.207031 116.648438 C 213.089844 116.929688 213.03125 117.226562 213.03125 117.535156 C 213.03125 117.84375 213.09375 118.136719 213.210938 118.421875 C 213.328125 118.707031 213.496094 118.957031 213.710938 119.171875 C 213.929688 119.390625 214.179688 119.558594 214.460938 119.675781 C 214.746094 119.796875 215.042969 119.855469 215.347656 119.855469 C 215.65625 119.859375 215.953125 119.800781 216.238281 119.683594 C 216.519531 119.570312 216.773438 119.402344 216.992188 119.1875 C 217.210938 118.972656 217.378906 118.722656 217.5 118.441406 C 217.621094 118.15625 217.683594 117.863281 217.683594 117.554688 C 217.6875 117.242188 217.628906 116.945312 217.507812 116.65625 C 217.390625 116.367188 217.222656 116.113281 217 115.894531 C 216.78125 115.675781 216.527344 115.507812 216.238281 115.390625 C 215.953125 115.273438 215.652344 115.214844 215.339844 115.214844 Z M 239.941406 115.203125 C 239.632812 115.203125 239.335938 115.261719 239.050781 115.382812 C 238.765625 115.5 238.515625 115.667969 238.296875 115.886719 C 238.078125 116.105469 237.910156 116.355469 237.792969 116.640625 C 237.675781 116.925781 237.617188 117.222656 237.617188 117.53125 C 237.617188 117.839844 237.675781 118.136719 237.792969 118.421875 C 237.910156 118.707031 238.078125 118.957031 238.296875 119.175781 C 238.515625 119.394531 238.765625 119.5625 239.050781 119.679688 C 239.335938 119.796875 239.632812 119.855469 239.941406 119.855469 C 240.25 119.855469 240.546875 119.796875 240.832031 119.679688 C 241.117188 119.5625 241.367188 119.394531 241.585938 119.175781 C 241.804688 118.957031 241.972656 118.707031 242.089844 118.421875 C 242.210938 118.136719 242.269531 117.839844 242.269531 117.53125 C 242.265625 117.222656 242.207031 116.925781 242.089844 116.644531 C 241.96875 116.359375 241.800781 116.109375 241.582031 115.894531 C 241.363281 115.675781 241.113281 115.507812 240.828125 115.390625 C 240.546875 115.273438 240.25 115.214844 239.941406 115.214844 Z M 264.550781 115.203125 C 264.242188 115.203125 263.945312 115.261719 263.660156 115.382812 C 263.375 115.5 263.121094 115.667969 262.90625 115.886719 C 262.6875 116.105469 262.519531 116.355469 262.402344 116.640625 C 262.28125 116.925781 262.222656 117.222656 262.222656 117.53125 C 262.222656 117.839844 262.28125 118.136719 262.402344 118.421875 C 262.519531 118.707031 262.6875 118.957031 262.90625 119.175781 C 263.121094 119.394531 263.375 119.5625 263.660156 119.679688 C 263.945312 119.796875 264.242188 119.855469 264.550781 119.855469 C 264.859375 119.855469 265.15625 119.796875 265.441406 119.679688 C 265.726562 119.5625 265.976562 119.394531 266.195312 119.175781 C 266.414062 118.957031 266.582031 118.707031 266.699219 118.421875 C 266.816406 118.136719 266.875 117.839844 266.875 117.53125 C 266.875 117.222656 266.8125 116.925781 266.695312 116.644531 C 266.578125 116.359375 266.410156 116.109375 266.191406 115.894531 C 265.972656 115.675781 265.722656 115.507812 265.4375 115.390625 C 265.152344 115.273438 264.855469 115.214844 264.550781 115.214844 Z M 289.15625 115.203125 C 288.847656 115.203125 288.550781 115.257812 288.265625 115.371094 C 287.980469 115.488281 287.726562 115.652344 287.503906 115.867188 C 287.285156 116.085938 287.113281 116.335938 286.992188 116.617188 C 286.871094 116.902344 286.808594 117.199219 286.808594 117.507812 C 286.804688 117.816406 286.859375 118.113281 286.976562 118.398438 C 287.089844 118.683594 287.253906 118.9375 287.472656 119.160156 C 287.6875 119.378906 287.9375 119.550781 288.222656 119.671875 C 288.503906 119.792969 288.800781 119.855469 289.109375 119.855469 C 289.417969 119.859375 289.714844 119.804688 290 119.6875 C 290.289062 119.574219 290.539062 119.40625 290.761719 119.191406 C 290.980469 118.976562 291.152344 118.726562 291.273438 118.441406 C 291.394531 118.160156 291.457031 117.863281 291.460938 117.554688 C 291.460938 117.246094 291.402344 116.949219 291.289062 116.667969 C 291.171875 116.382812 291.007812 116.128906 290.789062 115.910156 C 290.574219 115.691406 290.324219 115.523438 290.042969 115.402344 C 289.757812 115.28125 289.464844 115.21875 289.15625 115.214844 Z M 67.703125 139.03125 C 67.394531 139.03125 67.097656 139.089844 66.8125 139.207031 C 66.523438 139.324219 66.273438 139.492188 66.054688 139.710938 C 65.835938 139.929688 65.667969 140.179688 65.546875 140.464844 C 65.429688 140.75 65.371094 141.046875 65.371094 141.355469 C 65.371094 141.664062 65.429688 141.960938 65.546875 142.246094 C 65.664062 142.535156 65.832031 142.785156 66.050781 143.003906 C 66.269531 143.222656 66.523438 143.390625 66.808594 143.507812 C 67.09375 143.625 67.390625 143.683594 67.699219 143.683594 C 68.007812 143.683594 68.304688 143.625 68.589844 143.507812 C 68.875 143.386719 69.125 143.21875 69.34375 143 C 69.5625 142.78125 69.730469 142.53125 69.847656 142.246094 C 69.964844 141.957031 70.023438 141.660156 70.023438 141.351562 C 70.023438 141.046875 69.960938 140.75 69.84375 140.464844 C 69.726562 140.183594 69.558594 139.929688 69.339844 139.714844 C 69.125 139.496094 68.875 139.328125 68.589844 139.210938 C 68.304688 139.09375 68.011719 139.035156 67.703125 139.03125 Z M 92.308594 139.03125 C 92 139.03125 91.703125 139.089844 91.417969 139.207031 C 91.132812 139.324219 90.878906 139.492188 90.660156 139.710938 C 90.441406 139.929688 90.273438 140.179688 90.15625 140.464844 C 90.039062 140.75 89.976562 141.046875 89.976562 141.355469 C 89.976562 141.664062 90.035156 141.960938 90.152344 142.246094 C 90.273438 142.535156 90.441406 142.785156 90.660156 143.003906 C 90.878906 143.222656 91.128906 143.390625 91.414062 143.507812 C 91.699219 143.625 91.996094 143.683594 92.304688 143.683594 C 92.613281 143.683594 92.910156 143.625 93.195312 143.507812 C 93.480469 143.386719 93.734375 143.21875 93.953125 143 C 94.167969 142.78125 94.335938 142.53125 94.453125 142.246094 C 94.574219 141.957031 94.628906 141.660156 94.628906 141.351562 C 94.628906 141.046875 94.570312 140.75 94.453125 140.464844 C 94.332031 140.183594 94.167969 139.929688 93.949219 139.714844 C 93.730469 139.496094 93.480469 139.328125 93.195312 139.210938 C 92.914062 139.09375 92.617188 139.035156 92.308594 139.03125 Z M 116.910156 139.03125 C 116.601562 139.03125 116.304688 139.089844 116.019531 139.210938 C 115.734375 139.328125 115.484375 139.496094 115.265625 139.714844 C 115.046875 139.933594 114.878906 140.183594 114.761719 140.46875 C 114.644531 140.753906 114.585938 141.050781 114.585938 141.359375 C 114.585938 141.667969 114.644531 141.964844 114.761719 142.25 C 114.882812 142.535156 115.050781 142.789062 115.269531 143.003906 C 115.488281 143.222656 115.738281 143.390625 116.023438 143.507812 C 116.308594 143.625 116.605469 143.683594 116.914062 143.683594 C 117.222656 143.683594 117.519531 143.625 117.804688 143.507812 C 118.089844 143.386719 118.34375 143.21875 118.558594 143 C 118.777344 142.78125 118.945312 142.53125 119.0625 142.242188 C 119.179688 141.957031 119.238281 141.660156 119.238281 141.351562 C 119.238281 141.042969 119.175781 140.75 119.058594 140.464844 C 118.941406 140.179688 118.773438 139.929688 118.554688 139.710938 C 118.335938 139.496094 118.085938 139.328125 117.800781 139.207031 C 117.515625 139.089844 117.21875 139.03125 116.910156 139.03125 Z M 141.519531 139.03125 C 141.210938 139.03125 140.914062 139.089844 140.628906 139.210938 C 140.34375 139.328125 140.089844 139.496094 139.871094 139.714844 C 139.65625 139.933594 139.488281 140.183594 139.367188 140.46875 C 139.25 140.753906 139.191406 141.050781 139.191406 141.359375 C 139.191406 141.667969 139.25 141.964844 139.371094 142.25 C 139.488281 142.535156 139.65625 142.789062 139.875 143.003906 C 140.09375 143.222656 140.347656 143.390625 140.632812 143.507812 C 140.917969 143.625 141.214844 143.683594 141.523438 143.683594 C 141.832031 143.683594 142.128906 143.625 142.414062 143.507812 C 142.699219 143.386719 142.949219 143.21875 143.167969 143 C 143.386719 142.78125 143.550781 142.53125 143.667969 142.242188 C 143.789062 141.957031 143.84375 141.660156 143.84375 141.351562 C 143.84375 141.046875 143.785156 140.75 143.667969 140.46875 C 143.550781 140.183594 143.382812 139.933594 143.164062 139.714844 C 142.949219 139.5 142.699219 139.332031 142.414062 139.210938 C 142.132812 139.09375 141.835938 139.035156 141.53125 139.03125 Z M 166.125 139.03125 C 165.816406 139.03125 165.519531 139.089844 165.234375 139.210938 C 164.949219 139.328125 164.699219 139.496094 164.480469 139.714844 C 164.261719 139.933594 164.09375 140.183594 163.976562 140.46875 C 163.859375 140.753906 163.800781 141.050781 163.800781 141.359375 C 163.800781 141.667969 163.859375 141.964844 163.976562 142.25 C 164.097656 142.535156 164.265625 142.789062 164.484375 143.003906 C 164.703125 143.222656 164.953125 143.390625 165.238281 143.507812 C 165.523438 143.625 165.820312 143.683594 166.128906 143.683594 C 166.4375 143.683594 166.734375 143.625 167.019531 143.507812 C 167.304688 143.386719 167.558594 143.21875 167.773438 143 C 167.992188 142.78125 168.160156 142.53125 168.277344 142.242188 C 168.394531 141.957031 168.453125 141.660156 168.453125 141.351562 C 168.453125 141.042969 168.390625 140.75 168.273438 140.464844 C 168.15625 140.179688 167.988281 139.929688 167.769531 139.710938 C 167.550781 139.496094 167.300781 139.328125 167.015625 139.207031 C 166.730469 139.089844 166.433594 139.03125 166.125 139.03125 Z M 190.734375 139.03125 C 190.425781 139.03125 190.128906 139.089844 189.84375 139.207031 C 189.554688 139.324219 189.304688 139.492188 189.085938 139.710938 C 188.867188 139.929688 188.699219 140.179688 188.578125 140.464844 C 188.460938 140.75 188.402344 141.046875 188.402344 141.355469 C 188.402344 141.664062 188.460938 141.960938 188.578125 142.246094 C 188.695312 142.535156 188.863281 142.785156 189.082031 143.003906 C 189.300781 143.222656 189.554688 143.390625 189.839844 143.507812 C 190.125 143.625 190.421875 143.683594 190.730469 143.683594 C 191.039062 143.683594 191.335938 143.625 191.621094 143.507812 C 191.90625 143.386719 192.15625 143.21875 192.375 143 C 192.59375 142.78125 192.761719 142.53125 192.878906 142.246094 C 192.996094 141.957031 193.054688 141.660156 193.054688 141.351562 C 193.054688 141.046875 192.992188 140.75 192.875 140.464844 C 192.757812 140.183594 192.589844 139.929688 192.371094 139.714844 C 192.15625 139.496094 191.90625 139.328125 191.621094 139.210938 C 191.335938 139.09375 191.039062 139.035156 190.734375 139.03125 Z M 215.339844 139.03125 C 215.03125 139.035156 214.738281 139.097656 214.453125 139.214844 C 214.167969 139.335938 213.917969 139.503906 213.703125 139.726562 C 213.484375 139.945312 213.320312 140.195312 213.203125 140.480469 C 213.085938 140.769531 213.03125 141.0625 213.03125 141.371094 C 213.035156 141.679688 213.09375 141.976562 213.214844 142.261719 C 213.332031 142.542969 213.503906 142.796875 213.722656 143.011719 C 213.941406 143.230469 214.191406 143.394531 214.476562 143.511719 C 214.765625 143.628906 215.058594 143.6875 215.367188 143.683594 C 215.675781 143.683594 215.972656 143.625 216.257812 143.503906 C 216.542969 143.386719 216.792969 143.214844 217.007812 142.996094 C 217.226562 142.78125 217.394531 142.527344 217.511719 142.242188 C 217.628906 141.957031 217.6875 141.660156 217.683594 141.351562 C 217.683594 141.042969 217.625 140.746094 217.503906 140.460938 C 217.386719 140.175781 217.214844 139.921875 216.996094 139.707031 C 216.773438 139.488281 216.523438 139.320312 216.234375 139.203125 C 215.949219 139.085938 215.648438 139.03125 215.339844 139.03125 Z M 239.941406 139.03125 C 239.632812 139.03125 239.335938 139.089844 239.050781 139.210938 C 238.765625 139.328125 238.515625 139.496094 238.296875 139.714844 C 238.078125 139.933594 237.910156 140.183594 237.792969 140.46875 C 237.675781 140.753906 237.617188 141.050781 237.617188 141.359375 C 237.617188 141.667969 237.675781 141.964844 237.792969 142.25 C 237.914062 142.535156 238.082031 142.789062 238.300781 143.003906 C 238.519531 143.222656 238.769531 143.390625 239.054688 143.507812 C 239.339844 143.625 239.636719 143.683594 239.945312 143.683594 C 240.253906 143.683594 240.550781 143.625 240.835938 143.507812 C 241.121094 143.386719 241.371094 143.21875 241.589844 143 C 241.808594 142.78125 241.976562 142.53125 242.09375 142.242188 C 242.210938 141.957031 242.269531 141.660156 242.269531 141.351562 C 242.269531 141.042969 242.207031 140.75 242.089844 140.464844 C 241.972656 140.179688 241.804688 139.929688 241.585938 139.710938 C 241.367188 139.496094 241.117188 139.328125 240.832031 139.207031 C 240.546875 139.089844 240.25 139.03125 239.941406 139.03125 Z M 264.550781 139.03125 C 264.242188 139.03125 263.945312 139.089844 263.660156 139.210938 C 263.375 139.328125 263.121094 139.496094 262.902344 139.714844 C 262.6875 139.933594 262.519531 140.183594 262.398438 140.46875 C 262.28125 140.753906 262.222656 141.050781 262.222656 141.359375 C 262.222656 141.667969 262.28125 141.964844 262.402344 142.25 C 262.519531 142.535156 262.6875 142.789062 262.90625 143.003906 C 263.125 143.222656 263.378906 143.390625 263.664062 143.507812 C 263.949219 143.625 264.246094 143.683594 264.554688 143.683594 C 264.863281 143.683594 265.160156 143.625 265.445312 143.507812 C 265.730469 143.386719 265.980469 143.21875 266.199219 143 C 266.414062 142.78125 266.582031 142.53125 266.699219 142.242188 C 266.820312 141.957031 266.875 141.660156 266.875 141.351562 C 266.875 141.042969 266.816406 140.75 266.695312 140.464844 C 266.578125 140.179688 266.410156 139.929688 266.191406 139.710938 C 265.972656 139.496094 265.722656 139.328125 265.4375 139.207031 C 265.152344 139.089844 264.859375 139.03125 264.550781 139.03125 Z M 289.15625 139.03125 C 288.847656 139.027344 288.550781 139.085938 288.261719 139.203125 C 287.976562 139.316406 287.722656 139.484375 287.5 139.699219 C 287.28125 139.917969 287.109375 140.167969 286.992188 140.453125 C 286.871094 140.738281 286.808594 141.035156 286.808594 141.34375 C 286.804688 141.652344 286.863281 141.953125 286.980469 142.238281 C 287.097656 142.523438 287.265625 142.777344 287.480469 142.996094 C 287.699219 143.214844 287.953125 143.386719 288.238281 143.503906 C 288.523438 143.625 288.820312 143.683594 289.128906 143.683594 C 289.4375 143.683594 289.734375 143.625 290.023438 143.507812 C 290.308594 143.390625 290.558594 143.222656 290.777344 143.003906 C 290.996094 142.785156 291.164062 142.53125 291.285156 142.246094 C 291.402344 141.960938 291.460938 141.660156 291.460938 141.351562 C 291.457031 141.046875 291.398438 140.753906 291.28125 140.46875 C 291.167969 140.1875 291 139.9375 290.785156 139.71875 C 290.570312 139.503906 290.320312 139.335938 290.039062 139.214844 C 289.757812 139.097656 289.464844 139.035156 289.15625 139.03125 Z M 67.703125 162.832031 C 67.394531 162.828125 67.097656 162.886719 66.8125 163.007812 C 66.523438 163.125 66.273438 163.292969 66.054688 163.507812 C 65.835938 163.726562 65.667969 163.980469 65.546875 164.265625 C 65.429688 164.550781 65.371094 164.847656 65.371094 165.15625 C 65.371094 165.464844 65.429688 165.761719 65.546875 166.046875 C 65.664062 166.332031 65.832031 166.582031 66.050781 166.800781 C 66.269531 167.019531 66.523438 167.1875 66.808594 167.304688 C 67.09375 167.425781 67.390625 167.484375 67.699219 167.484375 C 68.007812 167.484375 68.304688 167.421875 68.589844 167.304688 C 68.875 167.1875 69.125 167.019531 69.34375 166.800781 C 69.5625 166.582031 69.730469 166.328125 69.847656 166.042969 C 69.964844 165.757812 70.023438 165.460938 70.023438 165.152344 C 70.019531 164.84375 69.960938 164.550781 69.839844 164.269531 C 69.722656 163.984375 69.554688 163.734375 69.335938 163.519531 C 69.121094 163.304688 68.871094 163.136719 68.585938 163.019531 C 68.304688 162.902344 68.007812 162.84375 67.703125 162.84375 Z M 92.308594 162.832031 C 92 162.828125 91.703125 162.886719 91.417969 163.003906 C 91.132812 163.125 90.882812 163.289062 90.664062 163.507812 C 90.445312 163.726562 90.273438 163.976562 90.15625 164.261719 C 90.039062 164.546875 89.976562 164.84375 89.976562 165.152344 C 89.976562 165.460938 90.035156 165.757812 90.152344 166.042969 C 90.269531 166.328125 90.4375 166.582031 90.65625 166.800781 C 90.875 167.019531 91.125 167.1875 91.410156 167.304688 C 91.695312 167.421875 91.992188 167.484375 92.300781 167.484375 C 92.609375 167.484375 92.90625 167.425781 93.191406 167.308594 C 93.476562 167.1875 93.730469 167.019531 93.949219 166.800781 C 94.167969 166.585938 94.335938 166.332031 94.453125 166.046875 C 94.570312 165.761719 94.628906 165.464844 94.628906 165.15625 C 94.628906 164.851562 94.570312 164.554688 94.449219 164.273438 C 94.332031 163.988281 94.164062 163.738281 93.945312 163.523438 C 93.730469 163.304688 93.480469 163.136719 93.195312 163.019531 C 92.910156 162.902344 92.617188 162.84375 92.308594 162.84375 Z M 116.910156 162.832031 C 116.601562 162.832031 116.304688 162.890625 116.019531 163.007812 C 115.734375 163.125 115.484375 163.292969 115.265625 163.511719 C 115.046875 163.730469 114.878906 163.984375 114.761719 164.269531 C 114.644531 164.554688 114.585938 164.851562 114.585938 165.160156 C 114.585938 165.46875 114.644531 165.765625 114.761719 166.050781 C 114.882812 166.335938 115.050781 166.585938 115.269531 166.804688 C 115.488281 167.023438 115.738281 167.191406 116.023438 167.308594 C 116.308594 167.425781 116.605469 167.484375 116.914062 167.484375 C 117.222656 167.484375 117.519531 167.421875 117.804688 167.304688 C 118.089844 167.1875 118.34375 167.015625 118.558594 166.796875 C 118.777344 166.578125 118.945312 166.328125 119.0625 166.042969 C 119.179688 165.757812 119.238281 165.460938 119.238281 165.152344 C 119.234375 164.84375 119.175781 164.550781 119.054688 164.265625 C 118.9375 163.984375 118.769531 163.734375 118.550781 163.519531 C 118.332031 163.300781 118.082031 163.136719 117.796875 163.019531 C 117.511719 162.902344 117.21875 162.84375 116.910156 162.84375 Z M 141.519531 162.832031 C 141.210938 162.832031 140.914062 162.890625 140.628906 163.007812 C 140.34375 163.125 140.089844 163.292969 139.875 163.511719 C 139.65625 163.730469 139.488281 163.980469 139.371094 164.265625 C 139.25 164.550781 139.191406 164.847656 139.191406 165.15625 C 139.191406 165.464844 139.25 165.761719 139.371094 166.046875 C 139.488281 166.332031 139.65625 166.582031 139.875 166.800781 C 140.089844 167.019531 140.34375 167.1875 140.628906 167.304688 C 140.914062 167.425781 141.210938 167.484375 141.519531 167.484375 C 141.828125 167.484375 142.125 167.425781 142.410156 167.304688 C 142.695312 167.1875 142.945312 167.019531 143.164062 166.800781 C 143.382812 166.582031 143.550781 166.332031 143.667969 166.046875 C 143.785156 165.761719 143.84375 165.464844 143.84375 165.15625 C 143.84375 164.851562 143.785156 164.554688 143.664062 164.273438 C 143.546875 163.992188 143.378906 163.742188 143.164062 163.523438 C 142.945312 163.308594 142.695312 163.140625 142.414062 163.023438 C 142.132812 162.902344 141.835938 162.84375 141.53125 162.84375 Z M 166.125 162.832031 C 165.816406 162.832031 165.519531 162.890625 165.234375 163.007812 C 164.949219 163.125 164.699219 163.292969 164.480469 163.511719 C 164.261719 163.730469 164.09375 163.980469 163.976562 164.265625 C 163.859375 164.550781 163.800781 164.847656 163.800781 165.15625 C 163.800781 165.464844 163.859375 165.761719 163.976562 166.046875 C 164.09375 166.332031 164.261719 166.582031 164.480469 166.800781 C 164.699219 167.019531 164.949219 167.1875 165.234375 167.304688 C 165.519531 167.425781 165.816406 167.484375 166.125 167.484375 C 166.433594 167.484375 166.730469 167.425781 167.015625 167.304688 C 167.300781 167.1875 167.554688 167.019531 167.769531 166.800781 C 167.988281 166.582031 168.15625 166.332031 168.273438 166.046875 C 168.394531 165.761719 168.453125 165.464844 168.453125 165.15625 C 168.449219 164.847656 168.390625 164.554688 168.273438 164.269531 C 168.152344 163.988281 167.984375 163.738281 167.765625 163.519531 C 167.546875 163.304688 167.296875 163.136719 167.011719 163.019531 C 166.730469 162.902344 166.433594 162.84375 166.125 162.84375 Z M 190.734375 162.832031 C 190.425781 162.828125 190.128906 162.886719 189.84375 163.003906 C 189.558594 163.125 189.304688 163.289062 189.085938 163.507812 C 188.867188 163.726562 188.699219 163.976562 188.578125 164.261719 C 188.460938 164.546875 188.402344 164.84375 188.402344 165.152344 C 188.402344 165.460938 188.460938 165.757812 188.578125 166.042969 C 188.695312 166.328125 188.863281 166.582031 189.082031 166.800781 C 189.296875 167.019531 189.550781 167.1875 189.835938 167.304688 C 190.121094 167.421875 190.417969 167.484375 190.726562 167.484375 C 191.035156 167.484375 191.332031 167.425781 191.617188 167.308594 C 191.902344 167.1875 192.152344 167.019531 192.371094 166.800781 C 192.589844 166.585938 192.757812 166.332031 192.875 166.046875 C 192.996094 165.761719 193.054688 165.464844 193.054688 165.15625 C 193.050781 164.851562 192.992188 164.554688 192.875 164.273438 C 192.753906 163.988281 192.585938 163.738281 192.371094 163.523438 C 192.152344 163.304688 191.902344 163.136719 191.617188 163.019531 C 191.335938 162.902344 191.039062 162.84375 190.734375 162.84375 Z M 215.339844 162.832031 C 215.03125 162.832031 214.738281 162.894531 214.453125 163.015625 C 214.167969 163.132812 213.917969 163.304688 213.703125 163.523438 C 213.484375 163.742188 213.320312 163.996094 213.203125 164.28125 C 213.085938 164.566406 213.03125 164.863281 213.03125 165.171875 C 213.035156 165.480469 213.09375 165.773438 213.214844 166.058594 C 213.332031 166.34375 213.503906 166.59375 213.722656 166.808594 C 213.941406 167.027344 214.191406 167.195312 214.476562 167.308594 C 214.765625 167.425781 215.058594 167.484375 215.367188 167.484375 C 215.675781 167.480469 215.972656 167.421875 216.257812 167.300781 C 216.542969 167.183594 216.792969 167.015625 217.007812 166.796875 C 217.226562 166.578125 217.394531 166.324219 217.511719 166.039062 C 217.628906 165.753906 217.6875 165.460938 217.683594 165.152344 C 217.683594 164.84375 217.621094 164.546875 217.5 164.261719 C 217.378906 163.976562 217.210938 163.726562 216.992188 163.511719 C 216.769531 163.292969 216.519531 163.128906 216.230469 163.011719 C 215.945312 162.898438 215.648438 162.839844 215.339844 162.84375 Z M 239.941406 162.832031 C 239.632812 162.832031 239.335938 162.890625 239.050781 163.007812 C 238.765625 163.125 238.515625 163.292969 238.296875 163.511719 C 238.078125 163.730469 237.910156 163.980469 237.792969 164.265625 C 237.675781 164.550781 237.617188 164.847656 237.617188 165.15625 C 237.617188 165.464844 237.675781 165.761719 237.792969 166.046875 C 237.910156 166.332031 238.078125 166.582031 238.296875 166.800781 C 238.515625 167.019531 238.765625 167.1875 239.050781 167.304688 C 239.335938 167.425781 239.632812 167.484375 239.941406 167.484375 C 240.25 167.484375 240.546875 167.425781 240.832031 167.304688 C 241.117188 167.1875 241.367188 167.019531 241.585938 166.800781 C 241.804688 166.582031 241.972656 166.332031 242.089844 166.046875 C 242.210938 165.761719 242.269531 165.464844 242.269531 165.15625 C 242.265625 164.847656 242.207031 164.554688 242.089844 164.269531 C 241.96875 163.988281 241.800781 163.738281 241.582031 163.519531 C 241.363281 163.304688 241.113281 163.136719 240.828125 163.019531 C 240.546875 162.902344 240.25 162.84375 239.941406 162.84375 Z M 264.550781 162.832031 C 264.242188 162.832031 263.945312 162.890625 263.660156 163.007812 C 263.375 163.125 263.121094 163.292969 262.90625 163.511719 C 262.6875 163.730469 262.519531 163.980469 262.402344 164.265625 C 262.28125 164.550781 262.222656 164.847656 262.222656 165.15625 C 262.222656 165.464844 262.28125 165.761719 262.402344 166.046875 C 262.519531 166.332031 262.6875 166.582031 262.90625 166.800781 C 263.121094 167.019531 263.375 167.1875 263.660156 167.304688 C 263.945312 167.425781 264.242188 167.484375 264.550781 167.484375 C 264.859375 167.484375 265.15625 167.425781 265.441406 167.304688 C 265.726562 167.1875 265.976562 167.019531 266.195312 166.800781 C 266.414062 166.582031 266.582031 166.332031 266.699219 166.046875 C 266.816406 165.761719 266.875 165.464844 266.875 165.15625 C 266.875 164.847656 266.8125 164.554688 266.695312 164.269531 C 266.578125 163.988281 266.410156 163.738281 266.191406 163.519531 C 265.972656 163.304688 265.722656 163.136719 265.4375 163.019531 C 265.152344 162.902344 264.855469 162.84375 264.550781 162.84375 Z M 289.15625 162.832031 C 288.847656 162.828125 288.550781 162.882812 288.261719 163 C 287.976562 163.117188 287.722656 163.28125 287.5 163.5 C 287.28125 163.714844 287.109375 163.964844 286.992188 164.25 C 286.871094 164.535156 286.808594 164.832031 286.808594 165.144531 C 286.804688 165.453125 286.863281 165.75 286.980469 166.035156 C 287.097656 166.324219 287.265625 166.574219 287.480469 166.796875 C 287.699219 167.015625 287.953125 167.183594 288.238281 167.304688 C 288.523438 167.421875 288.820312 167.484375 289.128906 167.484375 C 289.4375 167.484375 289.734375 167.425781 290.023438 167.308594 C 290.308594 167.1875 290.558594 167.019531 290.777344 166.800781 C 290.996094 166.582031 291.164062 166.328125 291.285156 166.042969 C 291.402344 165.757812 291.460938 165.460938 291.460938 165.152344 C 291.457031 164.847656 291.398438 164.554688 291.28125 164.273438 C 291.164062 163.992188 290.996094 163.742188 290.78125 163.527344 C 290.566406 163.308594 290.316406 163.144531 290.035156 163.023438 C 289.753906 162.90625 289.460938 162.84375 289.15625 162.84375 Z M 289.15625 162.832031 "/></g><path style=" stroke:none;fill-rule:nonzero;fill:#004aad;fill-opacity:1;" d="M 169.164062 179.320312 L 49.65625 179.320312 C 45.664062 179.320312 42.425781 176.074219 42.425781 172.082031 L 42.425781 9.707031 C 42.425781 5.714844 45.664062 2.472656 49.65625 2.472656 L 169.164062 2.472656 C 173.15625 2.472656 176.394531 5.714844 176.394531 9.707031 L 176.394531 172.082031 C 176.394531 176.074219 173.15625 179.320312 169.164062 179.320312 "/><g clip-rule="nonzero" clip-path="url(#6ca5c0d74a)"><path style=" stroke:none;fill-rule:nonzero;fill:#003586;fill-opacity:1;" d="M 169.164062 179.320312 L 169.164062 177.34375 L 49.65625 177.34375 C 48.195312 177.34375 46.894531 176.757812 45.933594 175.804688 C 44.972656 174.84375 44.394531 173.535156 44.394531 172.082031 L 44.394531 9.707031 C 44.394531 8.246094 44.972656 6.941406 45.933594 5.984375 C 46.894531 5.023438 48.195312 4.441406 49.65625 4.4375 L 169.164062 4.4375 C 170.617188 4.441406 171.925781 5.023438 172.886719 5.984375 C 173.839844 6.941406 174.425781 8.246094 174.425781 9.707031 L 174.425781 172.082031 C 174.425781 173.535156 173.839844 174.84375 172.886719 175.804688 C 171.925781 176.757812 170.617188 177.34375 169.164062 177.34375 L 169.164062 181.277344 C 171.695312 181.277344 174.007812 180.25 175.664062 178.585938 C 177.332031 176.925781 178.359375 174.613281 178.359375 172.082031 L 178.359375 9.707031 C 178.359375 7.175781 177.332031 4.863281 175.664062 3.203125 C 174.007812 1.539062 171.695312 0.507812 169.164062 0.507812 L 49.65625 0.507812 C 47.125 0.507812 44.8125 1.539062 43.152344 3.203125 C 41.488281 4.863281 40.453125 7.175781 40.460938 9.710938 L 40.460938 172.082031 C 40.453125 174.613281 41.488281 176.929688 43.152344 178.585938 C 44.8125 180.25 47.125 181.277344 49.65625 181.277344 L 169.164062 181.277344 L 169.164062 179.320312 "/></g><path style=" stroke:none;fill-rule:nonzero;fill:#ffffff;fill-opacity:1;" d="M 154.183594 196.390625 L 33.027344 196.390625 C 29.511719 196.390625 26.664062 193.53125 26.664062 190.019531 L 26.664062 25.75 C 26.664062 22.234375 29.511719 19.386719 33.027344 19.386719 L 136.203125 19.386719 L 160.554688 51.152344 L 160.554688 190.019531 C 160.554688 193.53125 157.695312 196.390625 154.183594 196.390625 "/><g clip-rule="nonzero" clip-path="url(#867d95c4b0)"><path style=" stroke:none;fill-rule:nonzero;fill:#003586;fill-opacity:1;" d="M 154.183594 196.390625 L 154.183594 194.453125 L 33.027344 194.453125 C 31.796875 194.445312 30.707031 193.960938 29.890625 193.152344 C 29.09375 192.339844 28.597656 191.25 28.597656 190.019531 L 28.597656 25.75 C 28.597656 24.519531 29.09375 23.425781 29.890625 22.613281 C 30.707031 21.808594 31.796875 21.320312 33.027344 21.320312 L 135.253906 21.320312 L 158.617188 51.808594 L 158.617188 190.019531 C 158.609375 191.25 158.121094 192.339844 157.316406 193.152344 C 156.503906 193.960938 155.414062 194.445312 154.183594 194.453125 L 154.183594 198.324219 C 156.464844 198.324219 158.554688 197.390625 160.050781 195.894531 C 161.550781 194.390625 162.488281 192.308594 162.488281 190.019531 L 162.488281 51.152344 C 162.488281 50.734375 162.34375 50.316406 162.085938 49.972656 L 137.746094 18.207031 C 137.382812 17.730469 136.808594 17.449219 136.203125 17.449219 L 33.027344 17.449219 C 30.742188 17.449219 28.652344 18.378906 27.160156 19.878906 C 25.65625 21.375 24.726562 23.464844 24.726562 25.75 L 24.726562 190.019531 C 24.726562 192.308594 25.65625 194.390625 27.160156 195.894531 C 28.652344 197.390625 30.742188 198.324219 33.027344 198.324219 L 154.183594 198.324219 L 154.183594 196.390625 "/></g><path style=" stroke:none;fill-rule:nonzero;fill:#d9f2fc;fill-opacity:1;" d="M 154.183594 196.390625 L 154.183594 194.453125 L 33.027344 194.453125 C 31.796875 194.445312 30.707031 193.960938 29.890625 193.152344 C 29.09375 192.339844 28.597656 191.25 28.597656 190.019531 L 28.597656 25.75 C 28.597656 24.519531 29.09375 23.425781 29.890625 22.613281 C 30.707031 21.808594 31.796875 21.320312 33.027344 21.320312 L 47.605469 21.320312 C 43.8125 58.558594 47.636719 97.5625 68.820312 129.320312 C 88.382812 158.640625 119.691406 179.550781 154.199219 186.636719 C 155.667969 186.9375 157.140625 187.207031 158.617188 187.457031 L 158.617188 190.019531 C 158.609375 191.25 158.121094 192.339844 157.316406 193.152344 C 156.503906 193.960938 155.414062 194.445312 154.183594 194.453125 L 154.183594 196.390625 "/><path style=" stroke:none;fill-rule:nonzero;fill:#003586;fill-opacity:1;" d="M 154.183594 196.390625 L 154.183594 194.453125 C 155.414062 194.445312 156.503906 193.960938 157.316406 193.152344 C 158.121094 192.339844 158.609375 191.25 158.617188 190.019531 L 158.617188 187.457031 C 159.253906 187.570312 159.902344 187.671875 160.554688 187.773438 L 160.554688 190.019531 C 160.554688 193.535156 157.695312 196.390625 154.183594 196.390625 L 33.027344 196.390625 C 29.511719 196.390625 26.664062 193.535156 26.664062 190.019531 L 26.664062 25.75 C 26.664062 22.234375 29.511719 19.386719 33.027344 19.386719 L 47.808594 19.386719 C 47.738281 20.027344 47.667969 20.679688 47.605469 21.320312 L 33.027344 21.320312 C 31.796875 21.320312 30.707031 21.808594 29.890625 22.613281 C 29.09375 23.425781 28.597656 24.519531 28.597656 25.75 L 28.597656 190.019531 C 28.597656 191.25 29.09375 192.339844 29.890625 193.152344 C 30.707031 193.960938 31.796875 194.445312 33.027344 194.453125 L 154.183594 194.453125 L 154.183594 196.390625 "/><path style=" stroke:none;fill-rule:nonzero;fill:#ffffff;fill-opacity:1;" d="M 136.152344 19.386719 L 136.152344 51.152344 L 160.554688 51.152344 Z M 136.152344 19.386719 "/><path style=" stroke:none;fill-rule:nonzero;fill:#003586;fill-opacity:1;" d="M 136.152344 19.386719 L 134.214844 19.386719 L 134.214844 51.152344 C 134.214844 51.660156 134.425781 52.164062 134.789062 52.519531 C 135.144531 52.886719 135.640625 53.085938 136.152344 53.085938 L 160.554688 53.085938 C 161.28125 53.085938 161.960938 52.667969 162.28125 52.011719 C 162.613281 51.351562 162.527344 50.554688 162.085938 49.972656 L 137.691406 18.207031 C 137.179688 17.550781 136.320312 17.289062 135.53125 17.550781 C 134.742188 17.820312 134.214844 18.558594 134.214844 19.386719 L 136.152344 19.386719 L 134.617188 20.5625 L 156.621094 49.214844 L 138.085938 49.214844 L 138.085938 19.386719 L 136.152344 19.386719 L 134.617188 20.5625 L 136.152344 19.386719 "/><path style=" stroke:none;fill-rule:nonzero;fill:#003586;fill-opacity:1;" d="M 53.644531 62.335938 L 88.5 62.335938 C 89.566406 62.335938 90.433594 61.46875 90.433594 60.402344 C 90.433594 59.332031 89.566406 58.464844 88.5 58.464844 L 53.644531 58.464844 C 52.578125 58.464844 51.710938 59.332031 51.710938 60.402344 C 51.710938 61.46875 52.578125 62.335938 53.644531 62.335938 "/><path style=" stroke:none;fill-rule:nonzero;fill:#003586;fill-opacity:1;" d="M 53.644531 82.761719 L 133.179688 82.761719 C 134.246094 82.761719 135.113281 81.894531 135.113281 80.824219 C 135.113281 79.757812 134.246094 78.890625 133.179688 78.890625 L 53.644531 78.890625 C 52.578125 78.890625 51.710938 79.757812 51.710938 80.824219 C 51.710938 81.894531 52.578125 82.761719 53.644531 82.761719 "/><path style=" stroke:none;fill-rule:nonzero;fill:#003586;fill-opacity:1;" d="M 53.644531 103.183594 L 133.179688 103.183594 C 134.246094 103.183594 135.113281 102.316406 135.113281 101.25 C 135.113281 100.179688 134.246094 99.3125 133.179688 99.3125 L 53.644531 99.3125 C 52.578125 99.3125 51.710938 100.179688 51.710938 101.25 C 51.710938 102.316406 52.578125 103.183594 53.644531 103.183594 "/><path style=" stroke:none;fill-rule:nonzero;fill:#003586;fill-opacity:1;" d="M 53.644531 123.609375 L 133.179688 123.609375 C 134.246094 123.609375 135.113281 122.742188 135.113281 121.671875 C 135.113281 120.605469 134.246094 119.738281 133.179688 119.738281 L 53.644531 119.738281 C 52.578125 119.738281 51.710938 120.605469 51.710938 121.671875 C 51.710938 122.742188 52.578125 123.609375 53.644531 123.609375 "/><path style=" stroke:none;fill-rule:nonzero;fill:#003586;fill-opacity:1;" d="M 53.644531 144.03125 L 133.179688 144.03125 C 134.246094 144.03125 135.113281 143.164062 135.113281 142.09375 C 135.113281 141.027344 134.246094 140.160156 133.179688 140.160156 L 53.644531 140.160156 C 52.578125 140.160156 51.710938 141.027344 51.710938 142.09375 C 51.710938 143.164062 52.578125 144.03125 53.644531 144.03125 "/><path style=" stroke:none;fill-rule:nonzero;fill:#003586;fill-opacity:1;" d="M 53.644531 164.453125 L 133.179688 164.453125 C 134.246094 164.453125 135.113281 163.585938 135.113281 162.519531 C 135.113281 161.449219 134.246094 160.582031 133.179688 160.582031 L 53.644531 160.582031 C 52.578125 160.582031 51.710938 161.449219 51.710938 162.519531 C 51.710938 163.585938 52.578125 164.453125 53.644531 164.453125 "/><g clip-rule="nonzero" clip-path="url(#39416073a0)"><path style=" stroke:none;fill-rule:nonzero;fill:#ffffff;fill-opacity:1;" d="M 51.515625 56.445312 L 137.246094 56.445312 L 137.246094 88.769531 L 51.515625 88.769531 Z M 51.515625 56.445312 "/></g><g clip-rule="nonzero" clip-path="url(#4c37bdbeff)"><path style=" stroke:none;fill-rule:evenodd;fill:#004aad;fill-opacity:1;" d="M 68.847656 42.550781 L 71.089844 44.230469 C 71.703125 44.6875 72.347656 44.921875 73.113281 44.964844 L 75.910156 45.121094 C 77.585938 45.214844 78.945312 46.355469 79.328125 47.988281 L 79.96875 50.71875 C 80.144531 51.464844 80.488281 52.058594 81.046875 52.582031 L 83.089844 54.5 C 84.3125 55.648438 84.621094 57.398438 83.863281 58.894531 L 82.597656 61.394531 C 82.253906 62.078125 82.132812 62.757812 82.226562 63.515625 L 82.558594 66.300781 C 82.757812 67.964844 81.867188 69.503906 80.328125 70.164062 L 77.75 71.265625 C 77.046875 71.566406 76.519531 72.007812 76.101562 72.652344 L 74.566406 74.996094 C 73.648438 76.398438 71.980469 77.007812 70.375 76.523438 L 67.691406 75.710938 C 66.960938 75.488281 66.273438 75.488281 65.539062 75.710938 L 62.855469 76.523438 C 61.25 77.007812 59.582031 76.398438 58.664062 74.996094 L 57.128906 72.652344 C 56.710938 72.007812 56.183594 71.566406 55.480469 71.265625 L 52.90625 70.164062 C 51.363281 69.503906 50.472656 67.964844 50.671875 66.300781 L 51.007812 63.515625 C 51.097656 62.757812 50.976562 62.078125 50.632812 61.394531 L 49.367188 58.894531 C 48.609375 57.398438 48.917969 55.648438 50.144531 54.5 L 52.1875 52.582031 C 52.746094 52.058594 53.089844 51.464844 53.261719 50.71875 L 53.902344 47.988281 C 54.285156 46.355469 55.644531 45.214844 57.320312 45.121094 L 60.117188 44.964844 C 60.882812 44.921875 61.527344 44.6875 62.140625 44.230469 L 64.382812 42.550781 C 65.726562 41.546875 67.503906 41.546875 68.847656 42.550781 Z M 65.183594 60.203125 L 62.75 57.769531 C 62.121094 57.136719 61.097656 57.136719 60.464844 57.769531 C 59.835938 58.398438 59.835938 59.421875 60.464844 60.054688 L 64.046875 63.632812 C 64.675781 64.265625 65.699219 64.265625 66.332031 63.632812 C 68.488281 61.476562 70.621094 59.292969 72.769531 57.125 C 73.394531 56.492188 73.394531 55.472656 72.761719 54.84375 C 72.132812 54.21875 71.109375 54.21875 70.480469 54.851562 Z M 66.617188 47.113281 C 63.265625 47.113281 60.234375 48.472656 58.039062 50.664062 C 55.84375 52.859375 54.488281 55.894531 54.488281 59.242188 C 54.488281 62.589844 55.84375 65.621094 58.039062 67.816406 C 60.234375 70.011719 63.265625 71.371094 66.617188 71.371094 C 69.964844 71.371094 72.996094 70.011719 75.191406 67.816406 C 77.386719 65.621094 78.742188 62.589844 78.742188 59.242188 C 78.742188 55.890625 77.386719 52.859375 75.191406 50.664062 C 72.996094 48.472656 69.964844 47.113281 66.617188 47.113281 Z M 74.222656 51.632812 C 72.277344 49.6875 69.585938 48.480469 66.617188 48.480469 C 63.644531 48.480469 60.953125 49.6875 59.007812 51.632812 C 57.058594 53.582031 55.855469 56.269531 55.855469 59.242188 C 55.855469 62.214844 57.058594 64.902344 59.007812 66.851562 C 60.953125 68.796875 63.644531 70.003906 66.617188 70.003906 C 69.585938 70.003906 72.277344 68.796875 74.222656 66.851562 C 76.171875 64.902344 77.375 62.214844 77.375 59.242188 C 77.375 56.269531 76.171875 53.582031 74.222656 51.632812 Z M 71.171875 78.042969 L 73.832031 83.753906 C 73.871094 83.84375 73.953125 83.898438 74.050781 83.902344 C 74.148438 83.90625 74.234375 83.859375 74.285156 83.773438 L 76.269531 80.363281 L 80.15625 81.042969 C 80.25 81.058594 80.34375 81.023438 80.402344 80.945312 C 80.460938 80.867188 80.472656 80.769531 80.433594 80.679688 L 77.125 73.582031 L 75.710938 75.746094 C 74.691406 77.304688 72.960938 78.148438 71.171875 78.042969 Z M 62.160156 78.039062 C 60.335938 78.183594 58.558594 77.335938 57.519531 75.746094 L 56.164062 73.671875 L 52.898438 80.679688 C 52.855469 80.769531 52.867188 80.867188 52.925781 80.945312 C 52.988281 81.023438 53.078125 81.058594 53.175781 81.042969 L 57.0625 80.363281 L 59.046875 83.773438 C 59.09375 83.859375 59.179688 83.90625 59.277344 83.902344 C 59.375 83.898438 59.457031 83.84375 59.5 83.753906 Z M 62.160156 78.039062 "/></g><g clip-rule="nonzero" clip-path="url(#678b21fecc)"><g clip-rule="nonzero" clip-path="url(#21c09f663c)"><path style=" stroke:none;fill-rule:nonzero;fill:#004199;fill-opacity:1;" d="M 54.230469 47.070312 L 78.972656 47.070312 L 78.972656 71.8125 L 54.230469 71.8125 Z M 54.230469 47.070312 "/></g></g><g clip-rule="nonzero" clip-path="url(#818f55766c)"><path style=" stroke:none;fill-rule:nonzero;fill:#ffffff;fill-opacity:1;" d="M 64.609375 57.839844 C 64.945312 58.808594 65.59375 59.421875 66.535156 59.660156 C 66.5625 59.667969 66.625 59.667969 66.691406 59.671875 L 66.683594 59.679688 L 66.785156 59.75 L 66.714844 59.671875 C 66.789062 59.671875 66.859375 59.667969 66.882812 59.660156 C 67.824219 59.421875 68.472656 58.808594 68.8125 57.839844 C 69.15625 57.722656 69.402344 57.394531 69.402344 57.019531 C 69.402344 56.789062 69.3125 56.570312 69.148438 56.40625 C 69.128906 56.386719 69.105469 56.367188 69.082031 56.347656 C 69.082031 56.328125 69.082031 56.308594 69.085938 56.289062 C 69.097656 56.042969 69.097656 55.824219 69.097656 55.652344 C 69.097656 55.109375 68.855469 54.601562 68.417969 54.222656 C 68.226562 54.054688 68.007812 53.921875 67.769531 53.824219 C 67.445312 53.71875 67.089844 53.65625 66.710938 53.648438 C 66.332031 53.65625 65.972656 53.71875 65.648438 53.824219 C 65.414062 53.921875 65.191406 54.054688 65 54.222656 C 64.566406 54.601562 64.324219 55.109375 64.324219 55.652344 C 64.324219 55.824219 64.324219 56.042969 64.335938 56.289062 C 64.335938 56.308594 64.335938 56.328125 64.339844 56.347656 C 64.316406 56.367188 64.292969 56.386719 64.273438 56.40625 C 64.109375 56.570312 64.019531 56.789062 64.019531 57.019531 C 64.019531 57.394531 64.261719 57.722656 64.609375 57.839844 "/></g><g clip-rule="nonzero" clip-path="url(#47dad66870)"><path style=" stroke:none;fill-rule:nonzero;fill:#ffffff;fill-opacity:1;" d="M 71.054688 61.558594 C 70.648438 60.871094 69.511719 60.792969 68.699219 60.527344 C 68.230469 61.246094 67.699219 61.699219 67.195312 62.542969 L 67.167969 61.648438 L 67.238281 61.253906 C 67.398438 61.246094 67.523438 61.113281 67.523438 60.953125 C 67.523438 60.785156 67.386719 60.648438 67.21875 60.648438 L 66.199219 60.648438 C 66.03125 60.648438 65.894531 60.785156 65.894531 60.953125 C 65.894531 61.113281 66.023438 61.25 66.183594 61.253906 L 66.253906 61.648438 L 66.226562 62.542969 C 65.71875 61.699219 65.1875 61.246094 64.722656 60.527344 C 63.90625 60.792969 62.769531 60.871094 62.367188 61.558594 C 61.945312 62.265625 61.753906 63.828125 61.6875 65.074219 C 61.679688 65.171875 61.71875 65.257812 61.800781 65.328125 C 61.882812 65.398438 61.980469 65.433594 62.097656 65.433594 L 71.324219 65.433594 C 71.441406 65.433594 71.539062 65.398438 71.621094 65.328125 C 71.699219 65.257812 71.738281 65.171875 71.734375 65.074219 C 71.664062 63.828125 71.472656 62.265625 71.054688 61.558594 "/></g><g clip-rule="nonzero" clip-path="url(#833a924719)"><g clip-rule="nonzero" clip-path="url(#ff0a6abb05)"><path style=" stroke:none;fill-rule:nonzero;fill:#0f88fe;fill-opacity:1;" d="M 0.117188 109.40625 L 42.628906 109.40625 L 42.628906 151.921875 L 0.117188 151.921875 Z M 0.117188 109.40625 "/></g></g><g clip-rule="nonzero" clip-path="url(#7a3d5d7455)"><g clip-rule="nonzero" clip-path="url(#a9e10f3104)"><path style=" stroke:none;fill-rule:nonzero;fill:#0d62d6;fill-opacity:1;" d="M 4.597656 107.914062 L 6.089844 107.914062 L 6.089844 110.898438 L 4.597656 110.898438 Z M 7.582031 107.914062 L 9.074219 107.914062 L 9.074219 110.898438 L 7.582031 110.898438 Z M 10.570312 107.914062 L 12.0625 107.914062 L 12.0625 110.898438 L 10.570312 110.898438 Z M 13.554688 107.914062 L 15.046875 107.914062 L 15.046875 110.898438 L 13.554688 110.898438 Z M 16.542969 107.914062 L 18.035156 107.914062 L 18.035156 110.898438 L 16.542969 110.898438 Z M 19.527344 107.914062 L 21.019531 107.914062 L 21.019531 110.898438 L 19.527344 110.898438 Z M 22.515625 107.914062 L 24.007812 107.914062 L 24.007812 110.898438 L 22.515625 110.898438 Z M 25.5 107.914062 L 26.996094 107.914062 L 26.996094 110.898438 L 25.5 110.898438 Z M 28.488281 107.914062 L 29.980469 107.914062 L 29.980469 110.898438 L 28.488281 110.898438 Z M 31.472656 107.914062 L 32.96875 107.914062 L 32.96875 110.898438 L 31.472656 110.898438 Z M 34.460938 107.914062 L 35.953125 107.914062 L 35.953125 110.898438 L 34.460938 110.898438 Z M 37.445312 107.914062 L 38.941406 107.914062 L 38.941406 110.898438 L 37.445312 110.898438 Z M 40.433594 107.914062 L 41.050781 107.914062 C 41.675781 107.914062 42.242188 108.089844 42.753906 108.445312 L 41.050781 110.898438 L 40.433594 110.898438 Z M 44.039062 110.984375 L 44.039062 112.476562 L 41.050781 112.476562 L 41.050781 110.984375 Z M 44.039062 113.96875 L 44.039062 115.460938 L 41.050781 115.460938 L 41.050781 113.96875 Z M 44.039062 116.957031 L 44.039062 118.449219 L 41.050781 118.449219 L 41.050781 116.957031 Z M 44.039062 119.941406 L 44.039062 121.433594 L 41.050781 121.433594 L 41.050781 119.941406 Z M 44.039062 122.929688 L 44.039062 124.421875 L 41.050781 124.421875 L 41.050781 122.929688 Z M 44.039062 125.914062 L 44.039062 127.410156 L 41.050781 127.410156 L 41.050781 125.914062 Z M 44.039062 128.902344 L 44.039062 130.394531 L 41.050781 130.394531 L 41.050781 128.902344 Z M 44.039062 131.886719 L 44.039062 133.382812 L 41.050781 133.382812 L 41.050781 131.886719 Z M 44.039062 134.875 L 44.039062 136.367188 L 41.050781 136.367188 L 41.050781 134.875 Z M 44.039062 137.859375 L 44.039062 139.355469 L 41.050781 139.355469 L 41.050781 137.859375 Z M 44.039062 140.847656 L 44.039062 142.339844 L 41.050781 142.339844 L 41.050781 140.847656 Z M 44.039062 143.832031 L 44.039062 145.328125 L 41.050781 145.328125 L 41.050781 143.832031 Z M 44.039062 146.820312 L 44.039062 148.3125 L 41.050781 148.3125 L 41.050781 146.820312 Z M 44.039062 149.808594 L 44.039062 150.339844 C 44.039062 151.027344 43.828125 151.636719 43.40625 152.175781 L 41.050781 150.339844 L 41.050781 149.808594 Z M 40.882812 153.328125 L 39.390625 153.328125 L 39.390625 150.339844 L 40.882812 150.339844 Z M 37.898438 153.328125 L 36.40625 153.328125 L 36.40625 150.339844 L 37.898438 150.339844 Z M 34.910156 153.328125 L 33.417969 153.328125 L 33.417969 150.339844 L 34.910156 150.339844 Z M 31.925781 153.328125 L 30.429688 153.328125 L 30.429688 150.339844 L 31.925781 150.339844 Z M 28.9375 153.328125 L 27.445312 153.328125 L 27.445312 150.339844 L 28.9375 150.339844 Z M 25.953125 153.328125 L 24.457031 153.328125 L 24.457031 150.339844 L 25.953125 150.339844 Z M 22.964844 153.328125 L 21.472656 153.328125 L 21.472656 150.339844 L 22.964844 150.339844 Z M 19.980469 153.328125 L 18.484375 153.328125 L 18.484375 150.339844 L 19.980469 150.339844 Z M 16.992188 153.328125 L 15.5 153.328125 L 15.5 150.339844 L 16.992188 150.339844 Z M 14.007812 153.328125 L 12.511719 153.328125 L 12.511719 150.339844 L 14.007812 150.339844 Z M 11.019531 153.328125 L 9.527344 153.328125 L 9.527344 150.339844 L 11.019531 150.339844 Z M 8.03125 153.328125 L 6.539062 153.328125 L 6.539062 150.339844 L 8.03125 150.339844 Z M 5.046875 153.328125 L 3.554688 153.328125 L 3.554688 150.339844 L 5.046875 150.339844 Z M 2.058594 153.328125 L 1.609375 153.328125 C 0.863281 153.328125 0.207031 153.082031 -0.355469 152.589844 L 1.609375 150.339844 L 2.058594 150.339844 Z M -1.378906 150.089844 L -1.378906 148.597656 L 1.609375 148.597656 L 1.609375 150.089844 Z M -1.378906 147.105469 L -1.378906 145.609375 L 1.609375 145.609375 L 1.609375 147.105469 Z M -1.378906 144.117188 L -1.378906 142.625 L 1.609375 142.625 L 1.609375 144.117188 Z M -1.378906 141.132812 L -1.378906 139.636719 L 1.609375 139.636719 L 1.609375 141.132812 Z M -1.378906 138.144531 L -1.378906 136.652344 L 1.609375 136.652344 L 1.609375 138.144531 Z M -1.378906 135.160156 L -1.378906 133.664062 L 1.609375 133.664062 L 1.609375 135.160156 Z M -1.378906 132.171875 L -1.378906 130.679688 L 1.609375 130.679688 L 1.609375 132.171875 Z M -1.378906 129.1875 L -1.378906 127.691406 L 1.609375 127.691406 L 1.609375 129.1875 Z M -1.378906 126.199219 L -1.378906 124.707031 L 1.609375 124.707031 L 1.609375 126.199219 Z M -1.378906 123.214844 L -1.378906 121.71875 L 1.609375 121.71875 L 1.609375 123.214844 Z M -1.378906 120.226562 L -1.378906 118.734375 L 1.609375 118.734375 L 1.609375 120.226562 Z M -1.378906 117.238281 L -1.378906 115.746094 L 1.609375 115.746094 L 1.609375 117.238281 Z M -1.378906 114.253906 L -1.378906 112.761719 L 1.609375 112.761719 L 1.609375 114.253906 Z M -1.378906 111.265625 L -1.378906 110.898438 C -1.378906 110.089844 -1.09375 109.390625 -0.527344 108.8125 L 1.609375 110.898438 L 1.609375 111.265625 Z M 1.609375 107.914062 L 3.101562 107.914062 L 3.101562 110.898438 L 1.609375 110.898438 Z M 1.609375 107.914062 "/></g></g><g clip-rule="nonzero" clip-path="url(#3874026927)"><path style=" stroke:none;fill-rule:nonzero;fill:#ffffff;fill-opacity:1;" d="M 18.152344 137.695312 L 11.734375 131.277344 C 11.347656 130.894531 11.347656 130.269531 11.734375 129.882812 L 13.132812 128.488281 C 13.515625 128.101562 14.140625 128.101562 14.527344 128.488281 L 18.851562 132.808594 L 28.109375 123.550781 C 28.492188 123.164062 29.117188 123.164062 29.503906 123.550781 L 30.902344 124.945312 C 31.285156 125.332031 31.285156 125.957031 30.902344 126.34375 L 19.546875 137.695312 C 19.164062 138.082031 18.539062 138.082031 18.152344 137.695312 Z M 18.152344 137.695312 "/></g></g></svg>