<?xml version="1.0" encoding="UTF-8" standalone="no"?>
<svg
   width="780"
   height="194"
   viewBox="0 0 780 194"
   fill="none"
   version="1.1"
   id="svg9"
   xmlns="http://www.w3.org/2000/svg"
   xmlns:svg="http://www.w3.org/2000/svg">
  <rect
     width="194"
     height="194"
     rx="8"
     fill="#eef5ff"
     id="rect1"
     x="0"
     y="0" />
  <path
     d="m 270.035,139.096 c -8.224,0 -15.406,-1.797 -21.542,-5.395 -6.141,-3.61 -10.953,-8.605 -14.437,-14.98 -3.49,-6.375 -5.23,-13.75 -5.23,-22.1247 0,-8.3593 1.74,-15.7291 5.23,-22.1041 3.484,-6.375 8.296,-11.3594 14.437,-14.9584 6.136,-3.6093 13.318,-5.4166 21.542,-5.4166 8.125,0 15.276,1.8073 21.458,5.4166 6.193,3.599 11.005,8.5834 14.438,14.9584 3.442,6.375 5.166,13.7448 5.166,22.1041 0,8.3747 -1.724,15.7497 -5.166,22.1247 -3.433,6.375 -8.245,11.37 -14.438,14.98 -6.182,3.598 -13.333,5.395 -21.458,5.395 z m 0,-13.5 c 7.817,0 14.052,-2.583 18.708,-7.75 4.651,-5.166 6.979,-12.25 6.979,-21.2497 0,-8.9843 -2.328,-16.0625 -6.979,-21.2291 -4.656,-5.1667 -10.891,-7.75 -18.708,-7.75 -7.834,0 -14.099,2.5833 -18.792,7.75 -4.698,5.1666 -7.042,12.2448 -7.042,21.2291 0,8.9997 2.344,16.0837 7.042,21.2497 4.693,5.167 10.958,7.75 18.792,7.75 z"
     fill="#003586"
     id="path1"
     style="fill:#ffffff" />
  <path
     d="M 324.006,163.492 V 79.4713 h 13.375 l 1.646,8.3334 c 1.875,-2.5834 4.354,-4.8542 7.437,-6.8125 3.094,-1.9584 7.11,-2.9375 12.042,-2.9375 5.484,0 10.375,1.3333 14.667,4 4.302,2.6562 7.708,6.2916 10.208,10.9166 2.51,4.6146 3.771,9.8547 3.771,15.7297 0,5.864 -1.261,11.083 -3.771,15.666 -2.5,4.573 -5.906,8.167 -10.208,10.792 -4.292,2.625 -9.183,3.937 -14.667,3.937 -4.375,0 -8.208,-0.823 -11.5,-2.458 -3.281,-1.651 -5.937,-3.964 -7.979,-6.937 v 33.791 z m 31.333,-37.541 c 4.776,0 8.73,-1.605 11.855,-4.813 3.125,-3.208 4.687,-7.354 4.687,-12.437 0,-5.084 -1.562,-9.2713 -4.687,-12.563 -3.125,-3.2917 -7.079,-4.9375 -11.855,-4.9375 -4.849,0 -8.823,1.625 -11.916,4.875 -3.084,3.25 -4.625,7.4165 -4.625,12.5005 0,5.083 1.541,9.25 4.625,12.5 3.093,3.25 7.067,4.875 11.916,4.875 z"
     fill="#003586"
     id="path2"
     style="fill:#ffffff" />
  <path
     d="m 428.811,139.096 c -5.875,0 -11.083,-1.25 -15.625,-3.75 -4.531,-2.51 -8.083,-6.031 -10.666,-10.562 -2.584,-4.542 -3.875,-9.781 -3.875,-15.729 0,-6.026 1.27,-11.3857 3.812,-16.0837 2.542,-4.6927 6.063,-8.3541 10.563,-10.9791 4.5,-2.625 9.796,-3.9375 15.895,-3.9375 5.719,0 10.771,1.2604 15.146,3.7708 4.375,2.5 7.792,5.9271 10.25,10.2708 2.469,4.3334 3.709,9.1617 3.709,14.4797 0,0.864 -0.021,1.765 -0.063,2.708 -0.031,0.932 -0.083,1.911 -0.167,2.937 h -44.25 c 0.318,4.532 1.901,8.084 4.75,10.667 2.86,2.583 6.323,3.875 10.396,3.875 3.052,0 5.615,-0.677 7.688,-2.042 2.067,-1.375 3.614,-3.156 4.646,-5.354 h 15.25 c -1.099,3.682 -2.917,7.031 -5.459,10.042 -2.541,3.015 -5.677,5.385 -9.396,7.104 -3.708,1.719 -7.911,2.583 -12.604,2.583 z m 0.104,-48.833 c -3.666,0 -6.911,1.0417 -9.729,3.125 -2.823,2.0729 -4.62,5.2188 -5.396,9.438 h 28.98 c -0.24,-3.8338 -1.646,-6.8807 -4.23,-9.1463 -2.583,-2.2761 -5.791,-3.4167 -9.625,-3.4167 z"
     fill="#003586"
     id="path3"
     style="fill:#ffffff" />
  <path
     d="M 470.696,137.68 V 79.4713 h 13.271 l 1.167,9.8542 c 1.802,-3.4427 4.406,-6.1771 7.812,-8.2083 3.401,-2.0417 7.406,-3.0625 12.021,-3.0625 7.193,0 12.781,2.2708 16.771,6.8125 4,4.5416 6,11.1979 6,19.9588 v 32.854 h -15.021 v -31.459 c 0,-5 -1.021,-8.8226 -3.063,-11.4788 -2.031,-2.6667 -5.198,-4 -9.5,-4 -4.224,0 -7.687,1.4896 -10.395,4.4583 -2.698,2.974 -4.042,7.1195 -4.042,12.4375 v 30.042 z"
     fill="#003586"
     id="path4"
     style="fill:#ffffff" />
  <path
     d="m 574.088,139.096 c -6.032,0 -11.469,-1.198 -16.313,-3.583 -4.849,-2.385 -8.703,-6.005 -11.562,-10.854 -2.849,-4.86 -4.271,-11.005 -4.271,-18.438 V 55.5338 h 15.021 v 50.8122 c 0,6.417 1.541,11.198 4.625,14.334 3.093,3.125 7.38,4.687 12.854,4.687 5.401,0 9.667,-1.562 12.792,-4.687 3.125,-3.136 4.687,-7.917 4.687,-14.334 V 55.5338 h 15.021 v 50.6872 c 0,7.433 -1.49,13.578 -4.458,18.438 -2.974,4.849 -6.948,8.469 -11.917,10.854 -4.958,2.385 -10.453,3.583 -16.479,3.583 z"
     fill="#003586"
     id="path5"
     style="fill:#ffffff" />
  <path
     d="M 641.442,137.68 V 67.6172 H 617.504 V 55.5338 h 63.021 V 67.6172 H 656.463 V 137.68 Z"
     fill="#003586"
     id="path6"
     style="fill:#ffffff" />
  <path
     d="M 691.672,137.68 V 55.5338 h 17.833 l 26.167,52.1042 25.833,-52.1042 h 17.834 V 137.68 H 764.318 V 80.9922 L 741.422,125.951 H 729.589 L 706.693,80.9922 V 137.68 Z"
     fill="#003586"
     id="path7"
     style="fill:#ffffff" />
  <circle
     cx="97.5"
     cy="96.5"
     r="57.5"
     fill="url(#paint0_linear_1_58)"
     id="circle7"
     style="fill:url(#paint0_linear_1_58)" />
  <circle
     cx="97"
     cy="96"
     r="37"
     fill="#eef5ff"
     id="circle8" />
  <defs
     id="defs9">
    <linearGradient
       id="paint0_linear_1_58"
       x1="62.021301"
       y1="56.943298"
       x2="138.688"
       y2="134.83299"
       gradientUnits="userSpaceOnUse">
      <stop
         stop-color="#1088FE"
         id="stop8" />
      <stop
         offset="1"
         stop-color="#0E5ECB"
         id="stop9" />
    </linearGradient>
  </defs>
</svg>
